<svg width="25" height="24" viewBox="0 0 25 24" fill="none" xmlns="http://www.w3.org/2000/svg">
<path d="M8.34133 0.349733C5.23081 0.887354 5.42282 0.426537 5.42282 7.14679V13.2142L7.30449 18.2832C9.53178 24.2738 9.49338 24.197 10.2614 23.8898C11.4134 23.4674 11.9511 21.5857 11.9511 18.0144V14.5583H17.4809H23.0491L23.8555 13.5214C24.4315 12.7918 24.5852 12.1774 24.4315 11.4478C24.3163 10.8717 24.3931 10.2957 24.5852 10.1421C25.1996 9.79649 25.0844 7.91482 24.4315 7.03159C24.1243 6.64757 23.8555 5.84114 23.8555 5.30352C23.8555 4.7275 23.5867 4.07468 23.2795 3.80587C22.9723 3.53706 22.7035 2.84583 22.7035 2.23141C22.7035 0.157726 22.0891 -0.0342808 15.868 0.00411987C12.7575 0.0425224 9.37817 0.196129 8.34133 0.349733Z" fill="#4F606E"/>
<path d="M0.507434 0.848952C0.238624 1.15616 0.0466167 3.57546 0.0082152 6.87798C-0.0301863 11.7934 0.0466167 12.4462 0.66104 12.907C1.50587 13.5214 2.81152 13.5598 3.42595 12.9454C4.07877 12.2926 4.07877 1.46338 3.42595 0.810551C2.81152 0.196127 1.00665 0.234529 0.507434 0.848952Z" fill="#4F606E"/>
</svg>
