<svg width="26" height="24" viewBox="0 0 26 24" fill="none" xmlns="http://www.w3.org/2000/svg">
<g id="Group 2">
<path id="Vector" d="M9.13715 0.844307C8.90622 1.42165 7.98246 4.00046 7.02022 6.50229L5.32668 11.121V17.1639V23.2453L7.36663 23.6687C8.55981 23.9381 11.9854 24.0536 15.9113 23.9766L22.4546 23.8611L22.7625 22.7064C22.9549 22.0521 23.3783 21.0899 23.6478 20.5125C23.9557 19.9737 24.1866 19.1269 24.1866 18.7035C24.1866 18.2416 24.456 17.4333 24.8024 16.933C25.2258 16.2787 25.3413 15.6243 25.1488 14.893C25.0334 14.3157 24.8024 13.084 24.6485 12.1218C24.2636 9.69693 23.5708 9.4275 17.1815 9.4275H11.8699V5.73249C11.8699 1.88353 11.6005 0.844307 10.3303 0.189983C9.67601 -0.156424 9.48356 -0.0794449 9.13715 0.844307Z" fill="#4F606E"/>
<path id="Vector_2" d="M0.092079 11.4675C0.0150997 11.7369 -0.02339 14.5466 0.0150997 17.7028L0.130569 23.4762L1.59318 23.5917C4.05651 23.7841 4.17198 23.4762 4.17198 17.3564C4.17198 13.6229 4.01802 11.7369 3.71011 11.429C3.09427 10.8131 0.361507 10.8516 0.092079 11.4675Z" fill="#4F606E"/>
</g>
</svg>
