<svg width="36" height="24" viewBox="0 0 36 24" fill="none" xmlns="http://www.w3.org/2000/svg">
<path d="M12.711 0.938667C8.43681 2.351 4.72015 5.06416 1.48666 9.07814C0.594665 10.1931 0 11.3081 0 11.9028C0 14.0585 6.68998 20.5254 10.927 22.4581C17.7656 25.5801 24.6043 23.9448 31.1084 17.7008C32.8181 16.0655 34.5649 14.17 34.9737 13.4638C35.6799 12.3488 35.7171 12.0886 35.2711 11.048C34.6392 9.48697 29.2501 4.09782 27.0944 2.83416C26.1653 2.27666 24.1583 1.42183 22.6716 0.901503C19.1036 -0.324995 16.279 -0.287828 12.711 0.938667ZM20.6274 5.51015C25.9794 7.92598 26.2024 15.6566 20.9991 18.1839C18.5461 19.3733 15.4241 19.1131 13.5286 17.5893C11.6331 16.0655 10.7783 14.3186 10.7783 11.94C10.7783 9.74714 11.3358 8.44631 12.8968 6.95965C15.1268 4.84116 17.9886 4.28366 20.6274 5.51015Z" fill="#4F606E"/>
</svg>
