<svg width="26" height="24" viewBox="0 0 26 24" fill="none" xmlns="http://www.w3.org/2000/svg">
<path d="M1.58053 10.1288C-0.273371 5.7048 2.15144 1.52833 5.49291 0.426673C8.16485 -0.454248 10.6424 0.0307849 12.7099 2.06703C12.8905 2.24493 13.0798 2.41403 13.0416 2.37837C14.4808 1.60535 15.7314 0.609239 17.1451 0.242901C19.9524 -0.484526 22.3241 0.451891 24.1673 2.64974C26.5662 5.51034 25.918 8.96137 24.3257 11.8603C22.2703 15.6025 19.256 18.509 16.3444 21.5173C15.6154 22.2705 14.7905 22.93 14.0302 23.6541C13.59 24.0734 13.1644 24.1312 12.7075 23.7187C9.40373 20.7355 6.20916 17.6407 3.63609 13.9874C2.81809 12.826 2.26458 11.4783 1.58053 10.1288Z" fill="#4C5C6B"/>
</svg>
