<svg width="25" height="24" viewBox="0 0 25 24" fill="none" xmlns="http://www.w3.org/2000/svg">
<g id="Group 903">
<path id="Vector" d="M21.1416 22.9375C19.7156 23.4283 18.4206 23.2335 17.1512 22.5752C16.9375 22.4644 16.5505 22.5051 16.3253 22.6269C13.5609 24.1227 10.6328 24.3736 7.68511 23.4909C5.29979 22.7766 3.44861 21.2174 2.11806 19.0678C1.07105 17.3763 0.601814 15.5224 0.590886 13.5714C0.580109 11.6472 1.03222 9.83535 2.06966 8.14982C4.00507 5.00536 6.80208 3.30553 10.4362 3.10178C12.9451 2.96111 15.3535 3.61171 17.3162 5.20977C19.5566 7.03395 21.1965 9.3231 21.3481 12.3565C21.4057 13.5093 21.2506 14.6714 21.234 15.8299C21.2306 16.0713 21.346 16.3835 21.5174 16.5465C22.3217 17.3113 23.1936 18.0061 23.9832 18.7849C24.4615 19.2567 24.5262 19.9735 24.1018 20.4335C23.2408 21.3667 22.5103 22.4927 21.1416 22.9375ZM14.5768 22.4042C15.045 22.1562 15.5131 21.9081 16.2185 21.5344C15.764 21.1802 15.3217 20.9954 15.1611 20.6711C14.9424 20.2297 14.738 19.6152 14.8783 19.1911C15.4336 17.5135 17.8989 15.9332 19.6164 16.0959C20.109 16.1426 20.2495 15.9769 20.3809 15.5707C20.9232 13.8936 20.6986 12.2335 20.1508 10.6383C19.5468 8.87977 18.5385 7.34726 17.0736 6.14483C15.5033 4.85587 13.701 4.09089 11.6947 3.95866C9.21627 3.79531 7.02651 4.53353 5.04058 6.12347C2.72793 7.97498 1.64723 10.3642 1.4459 13.2095C1.29607 15.327 1.97861 17.2606 3.12072 19.021C4.34625 20.91 6.16084 22.1073 8.2374 22.7773C10.297 23.442 12.4093 23.1555 14.5768 22.4042ZM19.479 21.6046C19.6688 21.5518 19.8651 21.5155 20.0474 21.4437C21.3132 20.9446 22.0411 19.7574 20.9215 18.3987C20.84 18.2999 20.3921 18.3248 20.3023 18.4394C19.638 19.2863 19.0215 20.1706 18.3126 21.1498C18.6281 21.282 18.9936 21.435 19.479 21.6046ZM17.6024 19.831C17.7175 19.9088 17.9271 20.0623 17.9341 20.0535C18.5059 19.3401 19.0618 18.6141 19.7403 17.7308C18.3559 17.9183 17.9999 18.2871 17.6024 19.831Z" fill="#4C5D6C"/>
<path id="Vector_2" d="M14.2912 0.126525C14.3452 0.328184 14.3991 0.529843 14.4792 0.829463C13.6791 0.829463 12.9966 0.829463 12.2364 0.829463C12.1981 1.3424 12.1648 1.78888 12.1321 2.22751C10.3801 2.73603 9.90282 2.48542 9.65932 0.906994C8.95385 0.834468 8.23539 0.760606 7.39517 0.674227C7.56354 0.36003 7.65328 0.192564 7.86494 0.0361633C10.0883 0.0736609 12.1898 0.100093 14.2912 0.126525Z" fill="#4C5D6C"/>
<path id="Vector_3" d="M19.145 3.90026C19.9636 4.71767 20.7327 5.49782 21.5172 6.26201C21.8164 6.55347 22.0795 6.88812 21.6265 7.16802C21.3938 7.3118 20.8631 7.31498 20.6843 7.14845C19.5672 6.10845 18.4889 5.02341 17.4529 3.90225C17.2251 3.65571 17.2201 3.20337 17.1031 2.81495C18.2443 2.49209 18.5177 3.44832 19.145 3.90026Z" fill="#4C5D6C"/>
<path id="Vector_4" d="M14.2486 0.0618838C12.1897 0.100101 10.0883 0.0736689 7.92389 0.0155506C9.97595 -0.0116787 12.0909 -0.00722212 14.2486 0.0618838Z" fill="#4C5D6C"/>
<path id="Vector_5" d="M8.73959 13.2523C7.90203 12.004 7.08419 10.8185 6.31602 9.60165C6.16492 9.3623 6.2056 9.00188 6.15784 8.6973C6.46582 8.72762 6.84852 8.65088 7.06985 8.80535C8.70945 9.94967 10.3309 11.1214 11.9285 12.3238C12.7025 12.9063 12.7893 13.9142 12.2028 14.5649C11.5247 15.3173 10.6527 15.3378 9.90525 14.5852C9.50495 14.1821 9.15136 13.7327 8.73959 13.2523Z" fill="#4C5D6C"/>
<path id="Vector_6" d="M5.37106 13.9124C4.7392 13.9635 4.1544 14.0398 3.59213 13.9591C3.28809 13.9155 3.0225 13.6039 2.73956 13.4131C2.78087 13.3203 2.82217 13.2274 2.86347 13.1345C3.62547 13.1345 4.39165 13.0877 5.14761 13.1553C5.49719 13.1866 5.97079 13.3867 5.37106 13.9124Z" fill="#4C5D6C"/>
<path id="Vector_7" d="M18.4977 13.9854C17.9925 13.9871 17.5457 14.0606 17.1402 13.9628C16.8166 13.8848 16.5432 13.5982 16.2475 13.4042C16.2957 13.3125 16.3439 13.2209 16.3921 13.1292C17.102 13.1292 17.8129 13.1078 18.521 13.1436C18.7082 13.1531 18.8865 13.3389 19.0689 13.4438C18.9039 13.6236 18.7389 13.8035 18.4977 13.9854Z" fill="#4C5D6C"/>
<path id="Vector_8" d="M10.6167 6.71887C10.6167 6.29692 10.6167 5.95578 10.6167 5.55529C11.151 5.46259 11.44 5.5543 11.4856 6.14533C11.608 7.73109 11.5202 7.99182 10.6167 8.06013C10.6167 7.63534 10.6167 7.21752 10.6167 6.71887Z" fill="#4C5D6C"/>
<path id="Vector_9" d="M11.4805 20.0783C11.479 20.444 11.4818 20.7309 11.4751 21.0175C11.4623 21.5668 11.1674 21.6895 10.6593 21.5535C10.6593 20.706 10.6593 19.8847 10.6593 19.0685C11.5419 18.892 11.484 19.4683 11.4805 20.0783Z" fill="#4C5D6C"/>
</g>
</svg>
