<svg width="39" height="24" viewBox="0 0 39 24" fill="none" xmlns="http://www.w3.org/2000/svg">
<g id="Group 902">
<path id="Vector" d="M3.39728 23.4589C2.68395 22.3493 2.02616 21.1984 1.24129 20.1419C0.494632 19.1369 0.125417 18.0337 0.0815588 16.8223C0.0323788 15.4638 0.0751498 14.1022 0.0682813 12.7421C0.0609875 11.2976 0.954452 10.3082 2.49557 10.2333C2.56026 10.7614 2.54113 11.2009 2.56044 11.6386C2.60351 12.6148 2.66577 13.5902 2.72021 14.566C2.86479 14.6412 3.00937 14.7165 3.26959 14.7284C3.40495 14.3732 3.4416 14.0815 3.44186 13.7897C3.44534 9.84718 3.44375 5.90469 3.44342 1.96221C3.63688 1.28599 3.86914 0.602159 4.67781 0.484814C5.85142 0.314516 6.56027 0.742703 7.09317 1.97183C7.03691 3.91165 7.01338 5.73758 7.01461 7.56348C7.01467 7.66027 7.2239 7.75692 7.33576 7.85364C9.52875 8.22132 11.7221 8.58694 13.9145 8.95826C14.4092 9.04204 14.9005 9.14567 15.496 9.29051C15.8083 9.43107 16.0179 9.52128 16.2379 9.62827C16.2483 9.64505 16.3003 9.64459 16.3003 9.64459C16.3003 9.64459 16.242 9.59718 16.2398 9.53217C16.1651 9.27827 16.0926 9.08938 16.0201 8.90049C15.9235 8.82248 15.8268 8.74447 15.7018 8.5662C15.5999 8.37829 15.5264 8.29062 15.4529 8.20295C15.3532 7.95344 15.2535 7.70393 15.1517 7.33817C15.0974 7.12794 15.0452 7.03395 14.993 6.93996C14.9349 6.68601 14.8768 6.43206 14.8599 6.07632C14.8795 5.82493 14.858 5.67534 14.8365 5.52574C14.8325 5.49396 14.8285 5.46219 14.8595 5.35417C14.8738 5.18221 14.8531 5.08649 14.8323 4.99078C14.901 3.48651 15.646 2.33585 16.8082 1.29982C16.9616 1.17161 17.0365 1.10583 17.1113 1.04006C18.6442 -0.324627 21.8811 -0.362587 23.3711 1.03574C24.0754 1.6966 24.6588 2.48617 25.3039 3.33513C25.3619 3.54881 25.413 3.64477 25.4641 3.74073C25.4641 3.74073 25.4748 3.8099 25.4814 3.90088C25.5416 4.0864 25.5952 4.18094 25.6488 4.27549C26.114 5.7083 25.7214 7.01751 24.9752 8.35989C24.8384 8.53389 24.7969 8.63749 24.7553 8.74108C24.3885 9.1315 24.0217 9.52191 23.5471 9.94797C23.3521 10.0559 23.265 10.1282 23.1778 10.2005C21.9379 10.8961 20.6463 11.2826 19.1055 10.8123C18.8344 10.738 18.6778 10.7133 18.5211 10.6885C18.5211 10.6885 18.5343 10.6835 18.496 10.6416C18.2975 10.5678 18.1372 10.5358 17.9769 10.5039C17.7316 10.3901 17.4862 10.2764 17.0752 10.0859C17.4593 10.7181 17.9358 11.1668 17.9909 11.6624C18.1083 12.7177 18.1147 13.8118 17.9739 14.8643C17.6269 17.4577 17.1723 20.0367 16.757 22.6209C16.7203 22.8494 16.6552 23.0734 16.5184 23.3792C12.0882 23.4588 7.74274 23.4588 3.39728 23.4589ZM10.0704 13.4662C10.0522 14.3779 10.008 15.29 10.0234 16.2011C10.0381 17.0724 10.1149 17.9427 10.2198 18.9089C10.3834 18.8823 10.5471 18.8557 10.8197 18.8526C10.8485 17.948 10.9082 17.0431 10.8978 16.1391C10.8865 15.1481 10.8107 14.1579 10.6274 13.1681C10.4736 13.2314 10.3197 13.2947 10.0704 13.4662ZM13.8789 18.7205C13.8942 17.5846 13.9301 16.4485 13.9167 15.3129C13.909 14.6604 13.8213 14.0088 13.7081 13.2503C13.5356 13.2847 13.3631 13.3191 13.0926 13.4606C13.0736 14.6533 13.0346 15.8461 13.0441 17.0386C13.0489 17.6343 13.1424 18.2293 13.2602 18.9275C13.4297 18.8907 13.5991 18.8539 13.8789 18.7205ZM7.22255 18.9318C7.56634 19.041 7.88226 19.0997 7.8821 18.574C7.88161 16.9462 7.89022 15.3184 7.87619 13.6908C7.87176 13.1775 7.59135 13.0928 7.08136 13.4492C7.1001 15.2374 7.11884 17.0257 7.22255 18.9318ZM21.9516 3.68974C21.0518 3.14812 20.1402 2.72318 19.0003 3.40952C18.9106 3.47505 18.8208 3.54058 18.6829 3.68535C18.5914 3.7677 18.4999 3.85005 18.3113 3.99246C18.2737 4.09698 18.2362 4.20149 18.1847 4.39278C18.146 4.46551 18.1073 4.53824 18.005 4.64227C17.9886 4.65814 17.9561 4.67803 17.9588 4.68915C17.969 4.73021 17.9909 4.76837 17.9566 4.93941C17.6643 6.18186 18.089 7.08025 19.2733 7.72454C20.1211 8.18575 21.3633 7.97501 22.0763 7.21766C22.8925 6.35062 22.8887 5.3664 22.4264 4.2086C22.3036 4.0564 22.1808 3.9042 21.9516 3.68974ZM16.8512 10.0023C16.8313 9.98423 16.8413 9.99329 16.8512 10.0023V10.0023Z" fill="#4C5D6C"/>
<path id="Vector_2" d="M16.7647 23.4578C18.032 21.4989 19.2767 19.5248 20.5708 17.5837C24.3131 11.9706 28.0871 6.37863 31.8115 0.753722C32.1882 0.184677 32.5678 -0.0203871 33.2177 0.00157877C34.4562 0.0434352 35.697 0.0137203 37.1151 0.0137203C36.9643 0.328527 36.8964 0.527897 36.7835 0.697371C31.8282 8.1417 26.8691 15.5835 21.9091 23.0247C21.7802 23.2181 21.6365 23.4015 21.3746 23.6424C19.6896 23.7281 18.1295 23.761 16.5694 23.794C16.5694 23.794 16.5795 23.7215 16.6151 23.6589C16.6887 23.5501 16.7267 23.504 16.7647 23.4578Z" fill="#4C5D6C"/>
<path id="Vector_3" d="M28.6912 21.6216C27.1648 19.2152 27.5599 16.3999 29.5395 14.4C31.4651 12.4547 35.404 12.5135 37.3891 14.9593C39.0813 17.0441 39.1708 19.0871 38.0047 21.2828C36.335 24.4268 31.6288 24.8065 29.6779 22.6082C29.3842 22.2773 29.0524 21.9802 28.6912 21.6216ZM30.7979 18.4232C30.7834 20.2328 32.609 21.5135 34.2286 20.6843C35.4405 20.0638 35.9939 18.8784 35.5439 17.692C35.0085 16.2807 33.3634 15.6756 32.2835 16.235C31.4162 16.6842 30.9944 17.3777 30.7979 18.4232Z" fill="#4C5D6C"/>
</g>
</svg>
