<svg width="20" height="24" viewBox="0 0 20 24" fill="none" xmlns="http://www.w3.org/2000/svg">
<g id="Group 900">
<path id="Vector" d="M19.6732 21.9317C19.641 22.7598 18.7555 23.7163 17.7561 23.8341C13.3297 23.8287 9.05133 23.8316 4.77298 23.8346C3.68698 23.7782 3.13636 23.2918 2.77018 21.9198C2.82195 18.8519 2.841 15.8986 2.84815 12.9452C2.84846 12.8201 2.73825 12.6947 2.67953 12.5695C2.0234 11.9858 1.33664 11.4309 0.737326 10.7938C0.619415 10.6684 0.743415 10.1368 0.920823 9.94579C1.45893 9.36637 2.07795 8.86209 2.73419 8.21869C2.82207 6.00853 2.84121 3.90821 2.86035 1.80789C2.95233 0.795915 3.63771 0.307188 4.59813 0C4.9375 0.0552744 5.16581 0.0894687 5.39415 0.0896144C9.46481 0.0922153 13.5355 0.0906843 17.6062 0.0900428C18.5919 0.051132 19.3706 0.752431 19.7548 2.17147C19.6954 2.53353 19.674 2.79241 19.674 3.0513C19.6723 9.34476 19.6729 15.6382 19.6732 21.9317ZM3.82358 7.34506C4.32539 6.84977 4.79553 6.31601 5.33768 5.86973C5.90796 5.4003 6.45532 5.67884 6.4932 6.43535C6.52624 7.09513 6.50009 7.75787 6.50009 8.47268C7.10747 8.56647 7.70833 8.57568 8.25154 8.75731C10.8852 9.63797 12.249 11.6115 12.2184 14.4518C12.2153 14.7389 12.0615 15.0243 11.9777 15.3105C11.7114 15.1774 11.4078 15.0888 11.186 14.9027C10.5414 14.3616 9.9782 13.7115 9.29219 13.235C8.49928 12.6842 7.58111 12.3841 6.501 12.445C6.501 13.1774 6.53252 13.8386 6.48512 14.4941C6.46678 14.7477 6.3281 15.1029 6.13651 15.2007C5.96601 15.2876 5.59788 15.146 5.40204 14.995C4.77123 14.5086 4.17972 13.9712 3.47389 13.4265C3.44383 14.9984 3.39973 16.5702 3.39183 18.1422C3.38929 18.647 3.48228 19.1523 3.60633 19.7786C3.92596 19.8593 4.24534 20.0092 4.56525 20.0103C8.98207 20.0257 13.399 20.0245 17.8158 20.0131C18.1497 20.0122 18.4834 19.9027 18.9209 19.7416C18.9395 19.6289 18.9743 19.5161 18.9744 19.4034C18.9775 13.9608 18.9792 8.51822 18.9715 3.07565C18.9712 2.89402 18.8722 2.71254 18.7671 2.44715C18.7166 2.40653 18.6661 2.36591 18.5186 2.22034C18.4341 2.20554 18.3496 2.17786 18.265 2.1778C13.6393 2.17442 9.01349 2.17128 4.38772 2.17853C4.16997 2.17887 3.95237 2.27363 3.7104 2.41675C3.659 2.45092 3.60761 2.48509 3.46448 2.63022C3.44016 4.15441 3.41191 5.67858 3.40529 7.20284C3.40501 7.26682 3.60622 7.33167 3.82358 7.34506Z" fill="#4B5C6B"/>
<path id="Vector_2" d="M19.7445 21.903C19.6729 15.6382 19.6723 9.34477 19.6739 3.05131C19.674 2.79242 19.6954 2.53354 19.7665 2.23349C19.8227 8.75299 19.8193 15.3137 19.7445 21.903Z" fill="#4B5C6B"/>
<path id="Vector_3" d="M4.80303 23.9044C9.05133 23.8316 13.3297 23.8287 17.6895 23.8298C17.6602 23.8917 17.5495 24.0001 17.4388 24C13.2369 23.9976 9.03498 23.9853 4.80303 23.9044Z" fill="#4B5C6B"/>
<path id="Vector_4" d="M2.68398 12.6505C2.73825 12.6947 2.84846 12.8201 2.84815 12.9452C2.84101 15.8986 2.82195 18.8519 2.75816 21.8584C2.70365 18.8515 2.69604 15.7916 2.68398 12.6505Z" fill="#4B5C6B"/>
<path id="Vector_5" d="M2.79501 1.84735C2.84118 3.9082 2.82205 6.00851 2.75899 8.16373C2.71995 6.10803 2.72482 3.99742 2.79501 1.84735Z" fill="#4B5C6B"/>
<path id="Vector_6" d="M18.869 19.7927C18.8147 14.1264 18.8123 8.40909 18.8145 2.61139C18.8722 2.71253 18.9712 2.89402 18.9715 3.07565C18.9792 8.51822 18.9775 13.9608 18.9744 19.4034C18.9743 19.5161 18.9395 19.6289 18.869 19.7927Z" fill="#4B5C6B"/>
<path id="Vector_7" d="M18.5671 2.27282C13.7091 2.32831 8.80255 2.33133 3.81535 2.32939C3.95237 2.27363 4.16997 2.17887 4.38772 2.17853C9.01349 2.17129 13.6393 2.17442 18.2651 2.1778C18.3496 2.17786 18.4341 2.20555 18.5671 2.27282Z" fill="#4B5C6B"/>
<path id="Vector_8" d="M3.52347 13.44C3.56577 15.4683 3.55849 17.4833 3.54139 19.5778C3.48228 19.1523 3.38929 18.647 3.39182 18.1422C3.39973 16.5702 3.44383 14.9984 3.52347 13.44Z" fill="#4B5C6B"/>
<path id="Vector_9" d="M3.51032 2.57474C3.5698 4.11276 3.58341 5.70626 3.65528 7.34794C3.6062 7.33167 3.40499 7.26681 3.40527 7.20284C3.41189 5.67858 3.44014 4.1544 3.51032 2.57474Z" fill="#4B5C6B"/>
<path id="Vector_10" d="M13.8348 3.55212C13.8772 3.63794 13.9196 3.72376 13.8841 3.88744C12.9784 4.00349 12.1503 4.03798 11.3227 4.08089C10.4723 4.12497 9.62238 4.17727 8.77227 4.22597C8.73363 3.96838 8.69499 3.71079 8.77025 3.4758C10.5344 3.51631 12.1846 3.53422 13.8348 3.55212Z" fill="#4D5D6C"/>
<path id="Vector_11" d="M8.85177 4.23617C9.62239 4.17729 10.4723 4.12499 11.3227 4.08091C12.1503 4.038 12.9784 4.00351 13.8727 3.93921C13.7393 4.02565 13.5411 4.23209 13.3393 4.23572C11.8704 4.26218 10.4007 4.24782 8.85177 4.23617Z" fill="#4B5C6B"/>
<path id="Vector_12" d="M13.785 3.49219C12.1846 3.53422 10.5344 3.51632 8.8293 3.45465C10.4281 3.41801 12.0817 3.42513 13.785 3.49219Z" fill="#4B5C6B"/>
</g>
</svg>
