<svg width="22" height="24" viewBox="0 0 22 24" fill="none" xmlns="http://www.w3.org/2000/svg">
<path d="M7.04619 0.236181C7.04619 0.443575 7.27087 0.495423 8.16957 0.495423H9.29295V1.27315V2.05087H10.4163H11.5397V1.27315V0.512706L12.6285 0.460858C13.2334 0.426292 13.6828 0.339878 13.6655 0.236181C13.6309 0.132485 12.3347 0.0460711 10.3299 0.0115054C7.47826 -0.0230601 7.04619 0.0115054 7.04619 0.236181Z" fill="#4F606E"/>
<path d="M16.7418 2.81132C16.5863 3.00143 16.5863 3.15697 16.7073 3.39893C17.0184 4.00383 20.4058 7.08016 20.6823 7.02831C21.3909 6.89005 21.0452 6.30244 19.196 4.45318C18.159 3.41621 17.2257 2.56936 17.122 2.56936C17.0184 2.56936 16.8455 2.67305 16.7418 2.81132Z" fill="#4F606E"/>
<path d="M9.03371 3.08784C5.24878 3.62361 2.10332 6.12961 0.720696 9.74171C0.0466679 11.5046 -0.0570287 14.2871 0.478737 16.0845C1.36016 19.0053 3.19213 21.252 5.69814 22.4446C7.25358 23.1877 9.03371 23.6543 10.4163 23.6543C12.3002 23.6543 14.616 22.9112 16.2752 21.7705C16.7073 21.4767 17.2085 21.2348 17.3986 21.2348C17.7269 21.2348 17.7615 21.3385 17.7615 22.5137C17.7615 23.9136 17.8306 24 18.8849 24C19.9391 24 20.0083 23.9136 20.0083 22.5137V21.2348H20.6132H21.2181V19.8521C21.2181 18.6942 21.1662 18.4177 20.8724 18.1239C20.6823 17.9337 20.3712 17.7782 20.1811 17.7782C19.749 17.7782 19.749 17.7782 20.2157 16.3956C20.7169 14.9093 20.7514 11.7292 20.2848 10.433C19.196 7.37397 17.485 5.35188 14.979 4.15937C12.8705 3.15697 10.9867 2.8286 9.03371 3.08784ZM13.268 4.09024C17.4504 5.542 20.0083 9.08496 20.0083 13.3884C20.0083 14.1488 19.9564 14.8228 19.9046 14.8747C19.8527 14.9438 19.6108 14.8747 19.3688 14.7537C18.8158 14.4599 18.28 14.65 17.9343 15.2549C17.7097 15.6524 17.7097 15.7561 17.9343 16.1709C18.1417 16.5511 18.3491 16.6721 18.8503 16.7067L19.4898 16.7585L19.2305 17.277C18.9886 17.7264 18.8676 17.7782 18.1417 17.7782C16.8628 17.7782 16.6554 18.0202 16.5517 19.5929L16.4653 20.9237L15.4111 21.5631C13.942 22.4446 12.7495 22.8075 10.9348 22.9112C7.9449 23.084 5.50802 22.1162 3.43409 19.9385C2.06875 18.5041 1.29103 17.0523 0.910807 15.2722C0.582434 13.734 0.582434 12.9217 0.910807 11.349C1.67125 7.70234 4.64389 4.69514 8.30783 3.84828C9.69046 3.53719 12.0063 3.65817 13.268 4.09024Z" fill="#4F606E"/>
<path d="M10.0534 5.57656C10.0015 5.69754 9.98426 6.26787 10.0188 6.82092C10.0534 7.58137 10.1398 7.84061 10.3299 7.84061C10.5373 7.84061 10.6064 7.56408 10.641 6.57896C10.6756 5.542 10.641 5.3346 10.4163 5.3346C10.2608 5.3346 10.1052 5.4383 10.0534 5.57656Z" fill="#4F606E"/>
<path d="M5.49074 8.65291C5.49074 8.94672 8.56708 13.4575 9.2411 14.1834C9.79415 14.7537 10.3818 14.9093 10.9867 14.6327C11.6607 14.3044 11.9545 13.5958 11.7125 12.8699C11.557 12.4033 11.0385 11.9539 8.8436 10.433C6.09564 8.53193 5.49074 8.20356 5.49074 8.65291Z" fill="#4F606E"/>
<path d="M2.50082 13.0427C2.43169 13.1119 2.37984 13.2847 2.37984 13.4057C2.37984 13.5958 2.65637 13.6303 3.64149 13.5958C4.60932 13.5612 4.88585 13.4921 4.88585 13.2847C4.88585 13.0773 4.6266 13.0082 3.76246 12.9736C3.14028 12.939 2.56995 12.9736 2.50082 13.0427Z" fill="#4F606E"/>
<path d="M15.9814 13.0427C15.9123 13.1119 15.8604 13.2847 15.8604 13.4057C15.8604 13.5958 16.1369 13.6303 17.122 13.5958C18.0899 13.5612 18.3664 13.4921 18.3664 13.2847C18.3664 13.0773 18.1072 13.0082 17.243 12.9736C16.6208 12.939 16.0505 12.9736 15.9814 13.0427Z" fill="#4F606E"/>
<path d="M10.1052 18.9361C9.88057 19.1435 9.98426 21.0101 10.2089 21.2175C10.5892 21.5113 10.6756 21.2693 10.6756 19.9904C10.6756 19.1262 10.6064 18.8152 10.4509 18.8152C10.3126 18.8152 10.1571 18.867 10.1052 18.9361Z" fill="#4F606E"/>
</svg>
