<svg width="12" height="24" viewBox="0 0 12 24" fill="none" xmlns="http://www.w3.org/2000/svg">
<path d="M3.46992 0.838556C1.24342 3.03615 2.54462 6.6506 5.52294 6.6506C7.22896 6.6506 8.26992 5.98554 8.81932 4.53976C9.25306 3.38313 9.25306 3.20964 8.79041 2.05301C8.24101 0.636146 7.20004 1.43051e-06 5.49402 1.43051e-06C4.56872 1.43051e-06 4.10607 0.173495 3.46992 0.838556Z" fill="#4F606E"/>
<path d="M1.99518 8.53012C0.346988 9.25301 0 10.1494 0 13.7928V16.9735L1.12771 17.3494L2.25542 17.7253L2.48675 20.8482L2.68916 24H5.63855H8.61687L8.81928 21.7446C9.13735 17.7831 9.13735 17.7831 10.4096 17.2627L11.5663 16.8289V14.0241C11.5663 9.10843 10.8145 8.2988 6.1012 8.18313C3.84578 8.1253 2.7759 8.21205 1.99518 8.53012Z" fill="#4F606E"/>
</svg>
