<svg width="31" height="24" viewBox="0 0 31 24" fill="none" xmlns="http://www.w3.org/2000/svg">
<path d="M30.1246 11.9263C27.371 14.6492 24.6701 17.3007 21.9427 19.9247C20.7488 21.0734 19.5117 22.1782 18.2689 23.2742C18.0152 23.498 17.6481 23.5931 17.3333 23.7476C17.1807 23.3817 16.9068 23.0193 16.8962 22.6494C16.8484 20.983 16.8754 19.3144 16.8754 17.5353C10.7098 17.3311 5.05378 18.1493 1.51384 24C-0.0920182 22.2934 1.78316 13.8247 4.41262 10.995C7.81262 7.33603 12.2253 6.79714 16.8548 6.46336C16.8548 4.38109 16.8548 2.38586 16.8548 0C17.5316 0.378884 18.0275 0.556084 18.395 0.879359C20.1287 2.40463 21.8156 3.9831 23.5415 5.51742C25.5102 7.26762 27.5141 8.97848 29.4731 10.7394C29.784 11.0188 29.9393 11.4713 30.1246 11.9263Z" fill="#4C5D6C"/>
</svg>
