<svg width="27" height="24" viewBox="0 0 27 24" fill="none" xmlns="http://www.w3.org/2000/svg">
<path d="M10.6604 0.288771C5.23797 1.18717 1.41979 4.29947 0.360963 8.69519C-0.120321 10.5562 -0.120321 10.9091 0.360963 12.738C0.649733 13.8289 1.32353 15.369 1.86898 16.1711C4.40374 19.861 10.0829 22.107 15.0882 21.4332C16.8529 21.1765 17.1738 21.2406 20.3503 22.5882C22.2112 23.3583 23.8155 24 23.8797 24C23.9118 24 23.8797 22.5882 23.7834 20.8235C23.5588 17.7433 23.5909 17.6471 24.4251 16.5241C25.6123 14.9519 26.5428 12.4171 26.5428 10.6845C26.5428 5.74332 21.9545 1.21925 15.9545 0.288771C13.6123 -0.0962563 12.9385 -0.0962563 10.6604 0.288771ZM19.8048 8.11765C19.8048 8.53476 18.8743 8.59893 13.4198 8.59893C7.6123 8.59893 6.26471 8.4385 6.87433 7.82888C6.97059 7.73262 9.95455 7.63636 13.4519 7.63636C18.8743 7.63636 19.8048 7.70053 19.8048 8.11765ZM14.6711 13.2513C14.6711 13.6364 14.0294 13.7326 10.8529 13.7326C7.35561 13.7326 6.29679 13.5401 6.87433 12.9626C6.97059 12.8663 8.79947 12.7701 10.885 12.7701C14.0294 12.7701 14.6711 12.8663 14.6711 13.2513Z" fill="#4F606E"/>
</svg>
