<svg width="24" height="24" viewBox="0 0 24 24" fill="none" xmlns="http://www.w3.org/2000/svg">
<g id="Group">
<path id="Vector" d="M1.03371 0.29781C-0.0349038 0.963503 0.000132683 0.560583 0.000132683 11.9474C0.000132683 22.0555 0.0176509 22.3533 0.350498 22.9139C0.998673 23.965 1.20889 24 8.53152 24C14.8381 24 15.1885 23.9825 15.7315 23.6496C16.0468 23.4569 16.4498 23.054 16.6425 22.7387C16.9753 22.1781 16.9928 21.8277 16.9928 12.035C16.9928 0.875912 17.0103 1.01606 15.9067 0.350365C15.3461 0.0175171 15.0483 0 8.40889 0C2.33006 0.0175171 1.43663 0.0350361 1.03371 0.29781ZM16.0118 2.2073C16.2571 2.29489 16.2921 3.29343 16.2921 11.562C16.2921 19.8307 16.2571 20.8292 16.0118 20.9168C15.8541 20.9693 12.4031 21.0219 8.33882 21.0219C2.82057 21.0219 0.893563 20.9693 0.735899 20.8117C0.438089 20.5139 0.438089 2.61022 0.735899 2.31241C0.893563 2.15475 2.82057 2.10219 8.33882 2.10219C12.4031 2.10219 15.8541 2.15475 16.0118 2.2073Z" fill="#4F606E"/>
<path id="Vector_2" d="M7.88334 5.34306C7.88334 6.07882 7.8483 6.13138 7.41035 6.13138C6.58699 6.1489 5.20305 7.00729 4.83516 7.76058C4.11692 9.23211 4.95779 10.7912 6.95487 11.6671L7.88334 12.0876V13.6642V15.2409H7.28772C6.95487 15.2409 6.20159 15.0832 5.60597 14.908L4.53735 14.5752L4.58991 15.381L4.64246 16.2044L5.60597 16.4146C6.13151 16.5372 6.86728 16.6774 7.23516 16.7299L7.88334 16.835V17.6934C7.88334 18.5518 7.90086 18.5693 8.40889 18.5693C8.93443 18.5693 8.93443 18.5518 8.93443 17.6058C8.93443 16.6949 8.95195 16.6423 9.37239 16.6423C10.003 16.6423 11.4921 15.854 11.8249 15.346C12.9461 13.6467 12.1928 11.9825 9.88042 11.019L8.93443 10.6161V9.07445C8.93443 7.56788 8.95195 7.53284 9.33735 7.53284C9.56509 7.53284 10.1432 7.65547 10.6162 7.79561C11.0892 7.93576 11.4921 8.05839 11.5096 8.05839C11.6498 8.05839 12.0702 6.74452 11.9651 6.65693C11.8074 6.51678 10.5636 6.20145 9.60013 6.04379C8.95195 5.93868 8.93443 5.92116 8.93443 5.25547C8.93443 4.58977 8.8994 4.55474 8.40889 4.55474C7.90086 4.55474 7.88334 4.58977 7.88334 5.34306ZM7.88334 8.84671C7.88334 9.56496 7.83078 10.1606 7.77823 10.1606C7.72567 10.1606 7.44538 10.0204 7.16509 9.86277C6.32421 9.35474 6.25414 8.12846 7.04246 7.74306C7.81327 7.37518 7.88334 7.46277 7.88334 8.84671ZM10.0731 13.0686C10.7563 13.6993 10.6337 14.5577 9.79283 14.9781C8.98699 15.3985 8.93443 15.3285 8.93443 13.8569C8.93443 12.5606 8.95195 12.473 9.2848 12.5606C9.4775 12.6131 9.82786 12.8409 10.0731 13.0686Z" fill="#4F606E"/>
<path id="Vector_3" d="M20.041 10.108C19.8308 10.1431 19.4454 10.4059 19.1826 10.6861C18.4994 11.4044 18.4994 12.438 19.2001 13.1562C19.603 13.5767 19.8308 13.6642 20.4965 13.6642C21.1622 13.6642 21.3899 13.5767 21.7928 13.1562C23.0366 11.8599 21.8103 9.74016 20.041 10.108Z" fill="#4F606E"/>
<path id="Vector_4" d="M18.2892 15.0307C17.6585 15.5212 17.5184 16.0292 17.5184 17.5883V19.0949H18.0439H18.5695V20.4613C18.5695 21.2847 18.6571 21.9153 18.7797 22.0379C19.06 22.3182 21.933 22.3182 22.2133 22.0379C22.3359 21.9153 22.4235 21.2847 22.4235 20.4613V19.0949H22.949H23.4746V17.5883C23.4746 15.0657 23.1067 14.7153 20.4965 14.7153C19.0074 14.7153 18.587 14.7854 18.2892 15.0307Z" fill="#4F606E"/>
</g>
</svg>
