<svg width="40" height="24" viewBox="0 0 40 24" fill="none" xmlns="http://www.w3.org/2000/svg">
<g id="Group 896">
<path id="Vector" d="M3.66968 23.4589C2.95635 22.3493 2.29856 21.1984 1.51369 20.1419C0.767032 19.1369 0.397817 18.0337 0.353959 16.8223C0.304779 15.4638 0.34755 14.1022 0.340681 12.7421C0.333387 11.2976 1.22685 10.3082 2.76797 10.2333C2.83266 10.7614 2.81353 11.2009 2.83284 11.6386C2.87591 12.6148 2.93817 13.5902 2.99261 14.566C3.13719 14.6412 3.28177 14.7165 3.54199 14.7284C3.67735 14.3732 3.714 14.0815 3.71426 13.7897C3.71774 9.84718 3.71615 5.90469 3.71582 1.96221C3.90928 1.28599 4.14154 0.602159 4.95021 0.484814C6.12381 0.314516 6.83267 0.742703 7.36557 1.97183C7.30931 3.91165 7.28578 5.73758 7.287 7.56348C7.28707 7.66027 7.4963 7.75692 7.60816 7.85364C9.80115 8.22132 11.9945 8.58694 14.1869 8.95826C14.6816 9.04204 15.1729 9.14567 15.7684 9.29051C16.0807 9.43107 16.2903 9.52128 16.5103 9.62827C16.5207 9.64505 16.5727 9.64459 16.5727 9.64459C16.5727 9.64459 16.5144 9.59718 16.5122 9.53217C16.4375 9.27827 16.365 9.08938 16.2925 8.90049C16.1959 8.82248 16.0992 8.74447 15.9742 8.5662C15.8723 8.37829 15.7988 8.29062 15.7253 8.20295C15.6256 7.95344 15.5259 7.70393 15.4241 7.33817C15.3698 7.12794 15.3176 7.03395 15.2654 6.93996C15.2073 6.68601 15.1492 6.43206 15.1323 6.07632C15.1519 5.82493 15.1304 5.67534 15.1089 5.52574C15.1049 5.49396 15.1009 5.46219 15.1319 5.35417C15.1462 5.18221 15.1255 5.08649 15.1047 4.99078C15.1734 3.48651 15.9184 2.33585 17.0806 1.29982C17.234 1.17161 17.3089 1.10583 17.3837 1.04006C18.9166 -0.324627 22.1535 -0.362587 23.6435 1.03574C24.3478 1.6966 24.9312 2.48617 25.5763 3.33513C25.6343 3.54881 25.6854 3.64477 25.7365 3.74073C25.7365 3.74073 25.7472 3.8099 25.7538 3.90088C25.814 4.0864 25.8676 4.18094 25.9212 4.27549C26.3864 5.7083 25.9938 7.01751 25.2476 8.35989C25.1108 8.53389 25.0693 8.63749 25.0277 8.74108C24.6609 9.1315 24.2941 9.52191 23.8195 9.94797C23.6245 10.0559 23.5374 10.1282 23.4502 10.2005C22.2103 10.8961 20.9187 11.2826 19.3779 10.8123C19.1068 10.738 18.9502 10.7133 18.7935 10.6885C18.7935 10.6885 18.8067 10.6835 18.7684 10.6416C18.5699 10.5678 18.4096 10.5358 18.2493 10.5039C18.004 10.3901 17.7586 10.2764 17.3476 10.0859C17.7317 10.7181 18.2082 11.1668 18.2633 11.6624C18.3807 12.7177 18.3871 13.8118 18.2463 14.8643C17.8993 17.4577 17.4447 20.0367 17.0294 22.6209C16.9927 22.8494 16.9276 23.0734 16.7908 23.3792C12.3606 23.4588 8.01514 23.4588 3.66968 23.4589ZM10.3428 13.4662C10.3246 14.3779 10.2804 15.29 10.2958 16.2011C10.3105 17.0724 10.3873 17.9427 10.4922 18.9089C10.6558 18.8823 10.8195 18.8557 11.0921 18.8526C11.1209 17.948 11.1806 17.0431 11.1702 16.1391C11.1589 15.1481 11.0831 14.1579 10.8998 13.1681C10.746 13.2314 10.5921 13.2947 10.3428 13.4662ZM14.1513 18.7205C14.1666 17.5846 14.2025 16.4485 14.1891 15.3129C14.1814 14.6604 14.0937 14.0088 13.9805 13.2503C13.808 13.2847 13.6355 13.3191 13.365 13.4606C13.346 14.6533 13.307 15.8461 13.3165 17.0386C13.3213 17.6343 13.4148 18.2293 13.5326 18.9275C13.7021 18.8907 13.8715 18.8539 14.1513 18.7205ZM7.49495 18.9318C7.83874 19.041 8.15466 19.0997 8.1545 18.574C8.15401 16.9462 8.16262 15.3184 8.14859 13.6908C8.14416 13.1775 7.86375 13.0928 7.35376 13.4492C7.3725 15.2374 7.39124 17.0257 7.49495 18.9318ZM22.224 3.68974C21.3242 3.14812 20.4126 2.72318 19.2727 3.40952C19.183 3.47505 19.0932 3.54058 18.9553 3.68535C18.8638 3.7677 18.7723 3.85005 18.5837 3.99246C18.5461 4.09698 18.5086 4.20149 18.4571 4.39278C18.4184 4.46551 18.3797 4.53824 18.2774 4.64227C18.261 4.65814 18.2285 4.67803 18.2312 4.68915C18.2414 4.73021 18.2633 4.76837 18.229 4.93941C17.9367 6.18186 18.3614 7.08025 19.5457 7.72454C20.3935 8.18575 21.6357 7.97501 22.3487 7.21766C23.1649 6.35062 23.1611 5.3664 22.6988 4.2086C22.576 4.0564 22.4532 3.9042 22.224 3.68974ZM17.1236 10.0023C17.1137 9.99329 17.1037 9.98423 17.1236 10.0023Z" fill="#9F8F5B"/>
<path id="Vector_2" d="M17.0371 23.4578C18.3044 21.4989 19.5491 19.5248 20.8432 17.5837C24.5855 11.9706 28.3595 6.37863 32.0839 0.753722C32.4606 0.184677 32.8402 -0.0203871 33.4901 0.00157877C34.7286 0.0434352 35.9694 0.0137203 37.3875 0.0137203C37.2367 0.328527 37.1688 0.527897 37.0559 0.697371C32.1006 8.1417 27.1415 15.5835 22.1815 23.0247C22.0526 23.2181 21.9089 23.4015 21.647 23.6424C19.962 23.7281 18.4019 23.761 16.8418 23.794C16.8418 23.794 16.8519 23.7215 16.8875 23.6589C16.9611 23.5501 16.9991 23.504 17.0371 23.4578Z" fill="#9F8F5B"/>
<path id="Vector_3" d="M28.9636 21.6216C27.4372 19.2152 27.8323 16.3999 29.8119 14.4C31.7375 12.4547 35.6764 12.5135 37.6615 14.9593C39.3537 17.0441 39.4432 19.0871 38.2771 21.2828C36.6074 24.4268 31.9012 24.8065 29.9503 22.6082C29.6566 22.2773 29.3248 21.9802 28.9636 21.6216ZM31.0703 18.4232C31.0558 20.2328 32.8814 21.5135 34.501 20.6843C35.7129 20.0638 36.2663 18.8784 35.8163 17.692C35.2809 16.2807 33.6358 15.6756 32.5559 16.235C31.6886 16.6842 31.2668 17.3777 31.0703 18.4232Z" fill="#9F8F5B"/>
</g>
</svg>
