<svg width="129" height="129" viewBox="0 0 129 129" fill="none" xmlns="http://www.w3.org/2000/svg">
<g id="Group 911">
<g id="Group 910">
<g id="g18">
<path id="path20" d="M129 64.5002C129 84.9572 119.477 103.189 104.623 115.005C93.6101 123.767 79.6678 129 64.5 129C49.3327 129 35.3904 123.767 24.3778 115.005C9.52284 103.189 0 84.9572 0 64.5002C0 28.879 28.8786 0 64.5 0C100.121 0 129 28.879 129 64.5002Z" fill="#F5F6F8"/>
</g>
</g>
<g id="g22">
<path id="path24" d="M89.5681 59.994C89.5681 73.8377 78.3453 85.0615 64.5006 85.0615C50.656 85.0615 39.4331 73.8377 39.4331 59.994C39.4331 46.1494 50.656 34.9256 64.5006 34.9256C78.3453 34.9256 89.5681 46.1494 89.5681 59.994Z" fill="#9F8F5B"/>
</g>
<g id="g26">
<path id="path28" d="M104.623 115.005C93.6102 123.767 79.6677 129 64.5006 129C49.3325 129 35.3905 123.767 24.3779 115.005C32.4418 103.158 47.3917 95.2008 64.5006 95.2008C81.6084 95.2008 96.5587 103.158 104.623 115.005Z" fill="#9F8F5B"/>
</g>
</g>
</svg>
