<svg width="20" height="24" viewBox="0 0 20 24" fill="none" xmlns="http://www.w3.org/2000/svg">
<g id="Group 901">
<path id="Vector" d="M19.7873 21.9317C19.7551 22.7598 18.8696 23.7163 17.8702 23.8341C13.4438 23.8287 9.16543 23.8316 4.88709 23.8346C3.80109 23.7782 3.25046 23.2918 2.88428 21.9198C2.93605 18.8519 2.95511 15.8986 2.96226 12.9452C2.96256 12.8201 2.85236 12.6947 2.79363 12.5695C2.1375 11.9858 1.45074 11.4309 0.851431 10.7938C0.73352 10.6684 0.85752 10.1368 1.03493 9.94579C1.57304 9.36637 2.19205 8.86209 2.84829 8.21869C2.93617 6.00853 2.95531 3.90821 2.97445 1.80789C3.06643 0.795915 3.75181 0.307188 4.71224 0C5.05161 0.0552744 5.27992 0.0894687 5.50825 0.0896144C9.57892 0.0922153 13.6496 0.0906843 17.7203 0.0900428C18.706 0.051132 19.4847 0.752431 19.8689 2.17147C19.8095 2.53353 19.7881 2.79241 19.7881 3.0513C19.7864 9.34476 19.7871 15.6382 19.7873 21.9317ZM3.93769 7.34506C4.43949 6.84977 4.90963 6.31601 5.45179 5.86973C6.02206 5.4003 6.56942 5.67884 6.60731 6.43535C6.64035 7.09513 6.61419 7.75787 6.61419 8.47268C7.22157 8.56647 7.82244 8.57568 8.36564 8.75731C10.9993 9.63797 12.3631 11.6115 12.3325 14.4518C12.3294 14.7389 12.1756 15.0243 12.0918 15.3105C11.8255 15.1774 11.5219 15.0888 11.3001 14.9027C10.6555 14.3616 10.0923 13.7115 9.4063 13.235C8.61339 12.6842 7.69521 12.3841 6.61511 12.445C6.61511 13.1774 6.64662 13.8386 6.59922 14.4941C6.58088 14.7477 6.4422 15.1029 6.25062 15.2007C6.08012 15.2876 5.71199 15.146 5.51615 14.995C4.88534 14.5086 4.29382 13.9712 3.588 13.4265C3.55793 14.9984 3.51384 16.5702 3.50593 18.1422C3.50339 18.647 3.59639 19.1523 3.72043 19.7786C4.04006 19.8593 4.35945 20.0092 4.67935 20.0103C9.09617 20.0257 13.5131 20.0245 17.9299 20.0131C18.2638 20.0122 18.5975 19.9027 19.035 19.7416C19.0536 19.6289 19.0884 19.5161 19.0885 19.4034C19.0916 13.9608 19.0933 8.51822 19.0856 3.07565C19.0853 2.89402 18.9863 2.71254 18.8812 2.44715C18.8307 2.40653 18.7803 2.36591 18.6327 2.22034C18.5482 2.20554 18.4637 2.17786 18.3792 2.1778C13.7534 2.17442 9.12759 2.17128 4.50182 2.17853C4.28407 2.17887 4.06647 2.27363 3.82451 2.41675C3.77311 2.45092 3.72171 2.48509 3.57858 2.63022C3.55427 4.15441 3.52601 5.67858 3.51939 7.20284C3.51912 7.26682 3.72032 7.33167 3.93769 7.34506Z" fill="#9F8F5B"/>
<path id="Vector_2" d="M19.8586 21.903C19.787 15.6382 19.7864 9.34477 19.788 3.05131C19.7881 2.79242 19.8095 2.53354 19.8806 2.23349C19.9368 8.75299 19.9334 15.3137 19.8586 21.903Z" fill="#9F8F5B"/>
<path id="Vector_3" d="M4.91714 23.9044C9.16544 23.8316 13.4438 23.8287 17.8036 23.8298C17.7743 23.8917 17.6636 24.0001 17.5529 24C13.351 23.9976 9.14908 23.9853 4.91714 23.9044Z" fill="#9F8F5B"/>
<path id="Vector_4" d="M2.79809 12.6505C2.85236 12.6947 2.96256 12.8201 2.96226 12.9452C2.95511 15.8986 2.93606 18.8519 2.87227 21.8584C2.81775 18.8515 2.81015 15.7916 2.79809 12.6505Z" fill="#9F8F5B"/>
<path id="Vector_5" d="M2.90911 1.84735C2.95529 3.9082 2.93615 6.00851 2.87309 8.16373C2.83405 6.10803 2.83892 3.99742 2.90911 1.84735Z" fill="#9F8F5B"/>
<path id="Vector_6" d="M18.9831 19.7927C18.9288 14.1264 18.9264 8.40909 18.9286 2.61139C18.9863 2.71253 19.0853 2.89402 19.0856 3.07565C19.0933 8.51822 19.0916 13.9608 19.0885 19.4034C19.0884 19.5161 19.0536 19.6289 18.9831 19.7927Z" fill="#9F8F5B"/>
<path id="Vector_7" d="M18.6812 2.27282C13.8232 2.32831 8.91665 2.33133 3.92945 2.32939C4.06648 2.27363 4.28408 2.17887 4.50183 2.17853C9.1276 2.17129 13.7534 2.17442 18.3792 2.1778C18.4637 2.17786 18.5482 2.20555 18.6812 2.27282Z" fill="#9F8F5B"/>
<path id="Vector_8" d="M3.63757 13.44C3.67987 15.4683 3.6726 17.4833 3.65549 19.5778C3.59638 19.1523 3.50339 18.647 3.50593 18.1422C3.51383 16.5702 3.55793 14.9984 3.63757 13.44Z" fill="#9F8F5B"/>
<path id="Vector_9" d="M3.62442 2.57474C3.6839 4.11276 3.69752 5.70626 3.76938 7.34794C3.7203 7.33167 3.51909 7.26681 3.51937 7.20284C3.52599 5.67858 3.55425 4.1544 3.62442 2.57474Z" fill="#9F8F5B"/>
<path id="Vector_10" d="M13.9489 3.55212C13.9913 3.63794 14.0337 3.72376 13.9982 3.88744C13.0925 4.00349 12.2644 4.03798 11.4368 4.08089C10.5864 4.12497 9.73648 4.17727 8.88638 4.22597C8.84773 3.96838 8.80909 3.71079 8.88436 3.4758C10.6485 3.51631 12.2987 3.53422 13.9489 3.55212Z" fill="#9F8F5B"/>
<path id="Vector_11" d="M8.96587 4.23617C9.73649 4.17729 10.5864 4.12499 11.4368 4.08091C12.2644 4.038 13.0925 4.00351 13.9868 3.93921C13.8534 4.02565 13.6552 4.23209 13.4534 4.23572C11.9845 4.26218 10.5148 4.24782 8.96587 4.23617Z" fill="#9F8F5B"/>
<path id="Vector_12" d="M13.8992 3.49219C12.2987 3.53422 10.6485 3.51632 8.94341 3.45465C10.5422 3.41801 12.1958 3.42513 13.8992 3.49219Z" fill="#9F8F5B"/>
</g>
</svg>
