<svg width="27" height="24" viewBox="0 0 27 24" fill="none" xmlns="http://www.w3.org/2000/svg">
<g id="Group">
<path id="Vector" d="M10.6715 0.354506L10.6713 0.35454C5.26812 1.24975 1.47679 4.3475 0.425775 8.7108L0.425784 8.7108L0.425506 8.71188C0.184696 9.64301 0.0666667 10.1888 0.0666667 10.7286C0.0666667 11.2683 0.184639 11.806 0.425413 12.7209C0.712592 13.8058 1.38354 15.3386 1.92403 16.1335C4.44229 19.7992 10.0945 22.038 15.079 21.3671C15.9625 21.2386 16.4939 21.1889 17.2041 21.344C17.9093 21.498 18.79 21.8539 20.3761 22.5268C21.3063 22.9117 22.1722 23.2645 22.8135 23.521C23.1343 23.6493 23.3986 23.7534 23.5867 23.8254C23.6808 23.8615 23.7554 23.8893 23.8082 23.9081C23.8134 23.9099 23.8182 23.9116 23.8229 23.9133C23.8243 23.8737 23.825 23.8196 23.825 23.7518C23.825 23.5928 23.8211 23.3619 23.813 23.0754C23.797 22.5027 23.765 21.7094 23.7169 20.8277C23.6049 19.2917 23.5557 18.4884 23.6413 17.9297C23.7283 17.3622 23.9547 17.0455 24.3716 16.4843L24.3719 16.4839C24.9607 15.7042 25.4872 14.6836 25.8665 13.6416C26.2459 12.5992 26.4761 11.5404 26.4761 10.6845C26.4761 5.78568 21.9222 1.2817 15.9443 0.354652L15.9437 0.354555C14.773 0.162106 14.0236 0.0666676 13.2834 0.0666676C12.5434 0.0666676 11.8101 0.162079 10.6715 0.354506ZM19.8715 8.11765C19.8715 8.18371 19.8525 8.24643 19.8046 8.30173C19.7584 8.35508 19.6893 8.39686 19.5976 8.43124C19.4154 8.49958 19.1201 8.54709 18.6627 8.58119C17.7452 8.6496 16.1461 8.6656 13.4198 8.6656C10.5171 8.6656 8.72413 8.62558 7.73284 8.50872C7.48467 8.47947 7.28484 8.44519 7.12947 8.40497C6.97552 8.36511 6.85904 8.31791 6.78262 8.25928C6.70281 8.19806 6.66151 8.11926 6.67654 8.02635C6.69016 7.94222 6.74842 7.86051 6.82719 7.78174C6.84167 7.76726 6.86018 7.76028 6.8697 7.75694C6.88199 7.75263 6.89635 7.74895 6.91169 7.74566C6.94257 7.73905 6.98355 7.7328 7.03312 7.72679C7.13261 7.71472 7.27218 7.70297 7.44656 7.69166C7.7956 7.66903 8.28779 7.64795 8.88569 7.62989C10.0817 7.59377 11.7027 7.5697 13.4519 7.5697C16.1621 7.5697 17.7533 7.5857 18.6667 7.65411C19.1221 7.68821 19.4164 7.73572 19.5982 7.80408C19.6896 7.83847 19.7585 7.88026 19.8047 7.93361C19.8525 7.98889 19.8715 8.0516 19.8715 8.11765ZM14.7378 13.2513C14.7378 13.3091 14.7256 13.3652 14.6945 13.4169C14.6635 13.4684 14.6166 13.511 14.5545 13.5468C14.4326 13.6169 14.2419 13.6662 13.9618 13.7025C13.3992 13.7753 12.4401 13.7993 10.8529 13.7993C9.10544 13.7993 7.95999 13.7514 7.32305 13.6297C7.16332 13.5991 7.03286 13.5635 6.93173 13.5216C6.83173 13.4802 6.7536 13.4299 6.70674 13.3659C6.65689 13.2979 6.647 13.2205 6.67257 13.141C6.69678 13.0658 6.75193 12.9907 6.82719 12.9154C6.83803 12.9046 6.85059 12.8977 6.85986 12.8933C6.86994 12.8885 6.88108 12.8845 6.89245 12.8809C6.9152 12.8738 6.94367 12.8673 6.9765 12.8611C7.04242 12.8488 7.13198 12.8369 7.24145 12.8256C7.46075 12.8028 7.76491 12.7817 8.1304 12.7636C8.86162 12.7275 9.84134 12.7034 10.885 12.7034C12.4562 12.7034 13.4073 12.7273 13.9658 12.8002C14.244 12.8365 14.4337 12.8858 14.5551 12.956C14.617 12.9918 14.6637 13.0344 14.6946 13.0858C14.7256 13.1375 14.7378 13.1935 14.7378 13.2513Z" fill="#9F8F5B" stroke="#9F8F5B" stroke-width="0.133333"/>
</g>
</svg>
