<svg width="30" height="24" viewBox="0 0 30 24" fill="none" xmlns="http://www.w3.org/2000/svg">
<path d="M29.33 11.9263C26.5764 14.6492 23.8754 17.3007 21.1481 19.9247C19.9542 21.0734 18.7171 22.1782 17.4743 23.2742C17.2205 23.498 16.8535 23.5931 16.5387 23.7476C16.386 23.3817 16.1122 23.0193 16.1016 22.6494C16.0538 20.983 16.0807 19.3144 16.0807 17.5353C9.91517 17.3311 4.25916 18.1493 0.719219 24C-0.886635 22.2934 0.98854 13.8247 3.618 10.995C7.018 7.33603 11.4307 6.79714 16.0602 6.46336C16.0602 4.38109 16.0602 2.38586 16.0602 0C16.737 0.378884 17.2329 0.556084 17.6004 0.879359C19.3341 2.40463 21.0209 3.9831 22.7469 5.51742C24.7156 7.26762 26.7195 8.97848 28.6785 10.7394C28.9894 11.0188 29.1447 11.4713 29.33 11.9263Z" fill="#9F8F5B"/>
</svg>
