<svg width="25" height="24" viewBox="0 0 25 24" fill="none" xmlns="http://www.w3.org/2000/svg">
<path id="Vector" d="M0.770351 10.1288C-1.08355 5.7048 1.34126 1.52833 4.68273 0.426673C7.35467 -0.454248 9.83227 0.0307849 11.8997 2.06703C12.0803 2.24493 12.2696 2.41403 12.2315 2.37837C13.6707 1.60535 14.9212 0.609239 16.335 0.242901C19.1422 -0.484526 21.514 0.451891 23.3571 2.64974C25.756 5.51034 25.1078 8.96137 23.5155 11.8603C21.4601 15.6025 18.4458 18.509 15.5342 21.5173C14.8052 22.2705 13.9803 22.93 13.22 23.6541C12.7798 24.0734 12.3542 24.1312 11.8974 23.7187C8.59355 20.7355 5.39898 17.6407 2.82591 13.9874C2.00791 12.826 1.4544 11.4783 0.770351 10.1288Z" fill="#9F8F5B"/>
</svg>
