<svg width="26" height="24" viewBox="0 0 26 24" fill="none" xmlns="http://www.w3.org/2000/svg">
<g id="Group 888">
<path id="Vector" d="M9.19958 0.867716L9.19959 0.867722L9.19905 0.869066C9.10608 1.10149 8.90144 1.65665 8.62729 2.40035C8.2198 3.5058 7.65875 5.02782 7.08264 6.5257C7.08258 6.52588 7.08251 6.52605 7.08245 6.52622L5.39334 11.1329V17.1639V23.191L7.38018 23.6034L7.38018 23.6034L7.38131 23.6036C7.97099 23.7368 9.11975 23.833 10.6166 23.8859C12.1114 23.9388 13.948 23.9484 15.91 23.9099L15.9102 23.9099L22.4031 23.7954L22.6981 22.6893L22.6981 22.6892L22.6985 22.6876C22.8926 22.0279 23.3179 21.0616 23.5873 20.4843L23.5871 20.4842L23.5899 20.4794C23.7404 20.2159 23.8734 19.8748 23.9686 19.5462C24.0641 19.2166 24.1199 18.9061 24.1199 18.7035C24.1199 18.4622 24.1898 18.1367 24.3016 17.811C24.4135 17.485 24.5697 17.1523 24.747 16.8959C25.1604 16.2567 25.2717 15.6218 25.0844 14.91L25.0843 14.91L25.0835 14.9061C24.9679 14.3282 24.7368 13.0956 24.5827 12.1323L24.5826 12.1322C24.4866 11.527 24.3725 11.0665 24.1607 10.712C23.9509 10.361 23.6419 10.1089 23.1439 9.92798C22.643 9.74608 21.9531 9.63706 20.9852 9.57401C20.0182 9.51102 18.7788 9.49417 17.1815 9.49417H11.8699H11.8033V9.4275V5.73249C11.8033 3.80679 11.7355 2.59363 11.5122 1.78092C11.4009 1.37618 11.2517 1.07368 11.0551 0.832958C10.8585 0.592302 10.6116 0.409887 10.2998 0.249252L10.2991 0.248903C10.1365 0.162781 10.008 0.106091 9.90136 0.0810852C9.7966 0.0565357 9.71785 0.0636635 9.64939 0.0997944C9.57867 0.137121 9.5095 0.210285 9.43527 0.337288C9.36125 0.463936 9.28586 0.637619 9.19958 0.867716Z" fill="#9F8F5B" stroke="#9F8F5B" stroke-width="0.133333"/>
<path id="Vector_2" d="M0.332998 11.3214C0.239586 11.3754 0.181618 11.4328 0.155063 11.4899C0.147889 11.5185 0.139605 11.5835 0.131563 11.6884C0.123309 11.796 0.115679 11.9392 0.108778 12.1142C0.0949786 12.464 0.0841631 12.9384 0.0769497 13.5034C0.0625252 14.6334 0.062522 16.1242 0.0817582 17.7017C0.0817593 17.7018 0.0817603 17.7019 0.0817614 17.702L0.196014 23.4145L1.59837 23.5252C2.21619 23.5735 2.67358 23.5888 3.01779 23.4949C3.18793 23.4485 3.32866 23.3757 3.44665 23.2678C3.56488 23.1597 3.6633 23.0134 3.74468 22.8158C3.90844 22.4181 3.9996 21.8218 4.04889 20.9358C4.09808 20.0515 4.10532 18.8867 4.10532 17.3564C4.10532 15.4901 4.06682 14.0873 3.99005 13.1133C3.95165 12.6261 3.90381 12.248 3.8469 11.9735C3.81844 11.8363 3.78803 11.7265 3.75607 11.6427C3.72366 11.5577 3.69166 11.5048 3.66297 11.4761C3.52346 11.3366 3.2537 11.2267 2.90908 11.1538C2.5678 11.0816 2.16507 11.0482 1.772 11.053C1.37869 11.0578 0.998392 11.1007 0.701557 11.1795C0.553043 11.2189 0.427861 11.2666 0.332998 11.3214Z" fill="#9F8F5B" stroke="#9F8F5B" stroke-width="0.133333"/>
</g>
</svg>
