<svg width="12" height="24" viewBox="0 0 12 24" fill="none" xmlns="http://www.w3.org/2000/svg">
<g id="Group 887">
<path id="Vector" d="M3.5181 0.884637L3.51812 0.884656L3.51676 0.886003C2.42234 1.96621 2.19664 3.39186 2.60743 4.54633C3.01803 5.70025 4.06423 6.58394 5.52294 6.58394C6.36759 6.58394 7.04066 6.41929 7.56893 6.0812C8.09651 5.74354 8.48617 5.22873 8.75695 4.5162C8.97455 3.93594 9.0778 3.61509 9.07435 3.29711C9.07089 2.97908 8.96062 2.65805 8.7285 2.07777L8.72825 2.07712C8.45767 1.3793 8.06829 0.878877 7.54082 0.551842C7.01248 0.224275 6.33915 0.066668 5.49402 0.066668C5.035 0.066668 4.69794 0.109833 4.39867 0.23163C4.09981 0.353257 3.83269 0.555748 3.5181 0.884637Z" fill="#9F8F5B" stroke="#9F8F5B" stroke-width="0.133333"/>
<path id="Vector_2" d="M2.2765 17.6621L2.31863 17.6761L2.32191 17.7204L2.55323 20.8433L2.55323 20.8433L2.55328 20.8439L2.75168 23.9333H5.63855H8.55592L8.75282 21.7392L8.75288 21.7386L8.75293 21.7379C8.83236 20.7487 8.89207 20.005 8.95681 19.4387C9.02148 18.8729 9.09168 18.4788 9.1938 18.191C9.29701 17.9001 9.43356 17.7158 9.62966 17.5717C9.82018 17.4318 10.0653 17.3315 10.3774 17.2038L10.3844 17.2009L10.3844 17.2009L10.3862 17.2002L11.4996 16.7827V14.0241C11.4996 12.7959 11.4526 11.8288 11.3096 11.0662C11.1668 10.3042 10.9292 9.75216 10.5525 9.34914C10.176 8.94641 9.65403 8.68546 8.92855 8.51828C8.20217 8.35089 7.27706 8.27868 6.09957 8.24978L6.0995 8.24978C3.84322 8.19192 2.78701 8.27975 2.02113 8.59154C1.20745 8.94854 0.726018 9.34265 0.441831 10.09C0.154053 10.8467 0.0666667 11.9696 0.0666667 13.7928V16.9254L1.14879 17.2862L2.2765 17.6621Z" fill="#9F8F5B" stroke="#9F8F5B" stroke-width="0.133333"/>
</g>
</svg>
