<svg width="25" height="24" viewBox="0 0 25 24" fill="none" xmlns="http://www.w3.org/2000/svg">
<g id="Group 898">
<path id="Vector" d="M21.0255 22.9375C19.5995 23.4283 18.3045 23.2335 17.0351 22.5752C16.8214 22.4644 16.4344 22.5051 16.2092 22.6269C13.4448 24.1227 10.5167 24.3736 7.56899 23.4909C5.18367 22.7766 3.33249 21.2174 2.00194 19.0678C0.954931 17.3763 0.485694 15.5224 0.474767 13.5714C0.463989 11.6472 0.916096 9.83535 1.95354 8.14982C3.88895 5.00536 6.68596 3.30553 10.3201 3.10178C12.829 2.96111 15.2374 3.61171 17.2001 5.20977C19.4405 7.03395 21.0804 9.3231 21.232 12.3565C21.2896 13.5093 21.1345 14.6714 21.1179 15.8299C21.1145 16.0713 21.2298 16.3835 21.4013 16.5465C22.2056 17.3113 23.0775 18.0061 23.8671 18.7849C24.3454 19.2567 24.4101 19.9735 23.9856 20.4335C23.1247 21.3667 22.3941 22.4927 21.0255 22.9375ZM14.4607 22.4042C14.9289 22.1562 15.397 21.9081 16.1023 21.5344C15.6479 21.1802 15.2056 20.9954 15.0449 20.6711C14.8263 20.2297 14.6219 19.6152 14.7622 19.1911C15.3174 17.5135 17.7828 15.9332 19.5002 16.0959C19.9929 16.1426 20.1334 15.9769 20.2647 15.5707C20.8071 13.8936 20.5825 12.2335 20.0346 10.6383C19.4307 8.87977 18.4224 7.34726 16.9575 6.14483C15.3872 4.85587 13.5849 4.09089 11.5786 3.95866C9.10015 3.79531 6.91039 4.53353 4.92446 6.12347C2.61181 7.97498 1.53111 10.3642 1.32978 13.2095C1.17995 15.327 1.86249 17.2606 3.0046 19.021C4.23013 20.91 6.04472 22.1073 8.12128 22.7773C10.1809 23.442 12.2932 23.1555 14.4607 22.4042ZM19.3629 21.6046C19.5527 21.5518 19.749 21.5155 19.9312 21.4437C21.1971 20.9446 21.925 19.7574 20.8054 18.3987C20.7239 18.2999 20.276 18.3248 20.1861 18.4394C19.5219 19.2863 18.9053 20.1706 18.1965 21.1498C18.512 21.282 18.8774 21.435 19.3629 21.6046ZM17.4863 19.831C17.6013 19.9088 17.811 20.0623 17.818 20.0535C18.3897 19.3401 18.9457 18.6141 19.6242 17.7308C18.2398 17.9183 17.8838 18.2871 17.4863 19.831Z" fill="#9F8F5B"/>
<path id="Vector_2" d="M14.1751 0.126525C14.2291 0.328184 14.283 0.529843 14.3631 0.829463C13.563 0.829463 12.8804 0.829463 12.1203 0.829463C12.082 1.3424 12.0487 1.78888 12.0159 2.22751C10.264 2.73603 9.7867 2.48542 9.5432 0.906994C8.83774 0.834468 8.11927 0.760606 7.27905 0.674227C7.44742 0.36003 7.53716 0.192564 7.74883 0.0361633C9.97221 0.0736609 12.0737 0.100093 14.1751 0.126525Z" fill="#9F8F5B"/>
<path id="Vector_3" d="M19.0289 3.90026C19.8475 4.71767 20.6165 5.49782 21.4011 6.26201C21.7003 6.55347 21.9634 6.88812 21.5104 7.16802C21.2777 7.3118 20.747 7.31498 20.5681 7.14845C19.451 6.10845 18.3727 5.02341 17.3368 3.90225C17.109 3.65571 17.104 3.20337 16.987 2.81495C18.1282 2.49209 18.4016 3.44832 19.0289 3.90026Z" fill="#9F8F5B"/>
<path id="Vector_4" d="M14.1324 0.0618838C12.0736 0.100101 9.97216 0.0736689 7.80777 0.0155506C9.85983 -0.0116787 11.9748 -0.00722212 14.1324 0.0618838Z" fill="#9F8F5B"/>
<path id="Vector_5" d="M8.62347 13.2523C7.78591 12.004 6.96807 10.8185 6.1999 9.60165C6.0488 9.3623 6.08948 9.00188 6.04172 8.6973C6.3497 8.72762 6.7324 8.65088 6.95373 8.80535C8.59334 9.94967 10.2148 11.1214 11.8124 12.3238C12.5864 12.9063 12.6732 13.9142 12.0867 14.5649C11.4086 15.3173 10.5366 15.3378 9.78913 14.5852C9.38883 14.1821 9.03524 13.7327 8.62347 13.2523Z" fill="#9F8F5B"/>
<path id="Vector_6" d="M5.25494 13.9124C4.62308 13.9635 4.03828 14.0398 3.47601 13.9591C3.17197 13.9155 2.90638 13.6039 2.62344 13.4131C2.66475 13.3203 2.70605 13.2274 2.74735 13.1345C3.50935 13.1345 4.27553 13.0877 5.03149 13.1553C5.38107 13.1866 5.85467 13.3867 5.25494 13.9124Z" fill="#9F8F5B"/>
<path id="Vector_7" d="M18.3816 13.9854C17.8763 13.9871 17.4296 14.0606 17.0241 13.9628C16.7005 13.8848 16.4271 13.5982 16.1314 13.4042C16.1796 13.3125 16.2278 13.2209 16.276 13.1292C16.9859 13.1292 17.6968 13.1078 18.4048 13.1436C18.5921 13.1531 18.7704 13.3389 18.9528 13.4438C18.7878 13.6236 18.6228 13.8035 18.3816 13.9854Z" fill="#9F8F5B"/>
<path id="Vector_8" d="M10.5006 6.71887C10.5006 6.29692 10.5006 5.95578 10.5006 5.55529C11.0349 5.46259 11.3239 5.5543 11.3695 6.14533C11.4919 7.73109 11.4041 7.99182 10.5005 8.06013C10.5005 7.63534 10.5005 7.21752 10.5006 6.71887Z" fill="#9F8F5B"/>
<path id="Vector_9" d="M11.3643 20.0783C11.3629 20.444 11.3657 20.7309 11.359 21.0175C11.3462 21.5668 11.0513 21.6895 10.5432 21.5535C10.5432 20.706 10.5432 19.8847 10.5432 19.0685C11.4258 18.892 11.3679 19.4683 11.3643 20.0783Z" fill="#9F8F5B"/>
</g>
</svg>
