<svg width="25" height="24" viewBox="0 0 25 24" fill="none" xmlns="http://www.w3.org/2000/svg">
<g id="Group">
<path id="Vector" d="M10.2366 23.8279L10.2366 23.8279L10.2385 23.8272C10.7846 23.627 11.198 23.0766 11.4742 22.1146C11.75 21.1539 11.8844 19.798 11.8844 18.0144V14.5583V14.4916H11.9511H17.4809H23.0165L23.8029 13.4805L23.8032 13.4801C24.0875 13.1201 24.2646 12.792 24.3528 12.4671C24.4408 12.1429 24.4413 11.8177 24.3663 11.4615L24.3662 11.4608C24.3073 11.1664 24.2972 10.8712 24.327 10.6284C24.3418 10.5071 24.3668 10.3971 24.4017 10.3061C24.4361 10.2162 24.4824 10.139 24.5435 10.09L24.543 10.0894L24.5525 10.084C24.6831 10.0105 24.7843 9.84894 24.8479 9.61688C24.9108 9.38693 24.9335 9.09927 24.917 8.79204C24.8839 8.1765 24.6944 7.49998 24.3787 7.07222C24.2186 6.87166 24.0718 6.56636 23.9651 6.24624C23.8581 5.9252 23.7889 5.58178 23.7889 5.30352C23.7889 5.02515 23.7237 4.72622 23.6207 4.46387C23.5172 4.20044 23.3782 3.98079 23.2356 3.85604C23.0702 3.7113 22.9213 3.45966 22.8138 3.17153C22.7058 2.88194 22.6368 2.54764 22.6368 2.23141C22.6368 1.71346 22.5978 1.32677 22.4507 1.03302C22.306 0.744341 22.052 0.536558 21.598 0.389139C21.1414 0.240833 20.4888 0.155867 19.5573 0.11091C18.627 0.0660095 17.4239 0.0611839 15.8686 0.0707836C12.7582 0.10919 9.38449 0.26277 8.35191 0.41556C8.16283 0.448235 7.98663 0.477144 7.82228 0.504107C7.30624 0.58877 6.90717 0.654243 6.59382 0.756901C6.38918 0.823942 6.22581 0.905586 6.09369 1.01586C5.96208 1.12571 5.85847 1.26648 5.77687 1.45613C5.61202 1.83923 5.53867 2.41666 5.50805 3.32749C5.48464 4.02396 5.48621 4.90869 5.48822 6.04091C5.48883 6.38599 5.48949 6.75406 5.48949 7.14679V13.2022L7.36698 18.26L7.36699 18.26L7.4353 18.4438C8.50427 21.319 9.03443 22.745 9.38913 23.4171C9.4793 23.588 9.55634 23.7065 9.62595 23.7868C9.69523 23.8667 9.75436 23.9054 9.80835 23.9222C9.862 23.9388 9.91871 23.9363 9.98855 23.9183C10.0528 23.9017 10.1224 23.8738 10.207 23.8398C10.2167 23.8359 10.2266 23.832 10.2366 23.8279Z" fill="#9F8F5B" stroke="#9F8F5B" stroke-width="0.133333"/>
<path id="Vector_2" d="M0.559175 0.890992L0.55921 0.89102L0.557606 0.892853C0.534057 0.919765 0.504912 0.979146 0.474158 1.08017C0.444207 1.17856 0.415056 1.30824 0.387092 1.46769C0.331198 1.78641 0.280995 2.21853 0.237866 2.74566C0.151638 3.79957 0.0940709 5.22829 0.0748788 6.87863C0.0556675 9.33777 0.065409 10.7253 0.156091 11.5557C0.201398 11.9706 0.266414 12.2408 0.355025 12.434C0.44238 12.6245 0.554124 12.7434 0.70065 12.8534C1.11096 13.1516 1.63486 13.311 2.13115 13.3204C2.62859 13.3298 3.08849 13.1886 3.37881 12.8983C3.40705 12.87 3.44152 12.8037 3.47702 12.689C3.5115 12.5776 3.54407 12.4307 3.57443 12.2522C3.63512 11.8953 3.68593 11.4186 3.72667 10.8609C3.80812 9.74577 3.8489 8.31223 3.8489 6.87798C3.8489 5.44373 3.80812 4.0102 3.72667 2.89509C3.68593 2.33734 3.63512 1.86063 3.57443 1.5038C3.54407 1.32527 3.5115 1.17835 3.47702 1.06695C3.44152 0.95227 3.40705 0.885932 3.37881 0.857691C3.23627 0.715158 3.02027 0.606646 2.76307 0.53517C2.50671 0.463926 2.21438 0.43088 1.92457 0.435592C1.63471 0.440305 1.3498 0.482752 1.10814 0.560781C0.865302 0.639191 0.672581 0.751416 0.559175 0.890992Z" fill="#9F8F5B" stroke="#9F8F5B" stroke-width="0.133333"/>
</g>
</svg>
