<svg width="22" height="24" viewBox="0 0 22 24" fill="none" xmlns="http://www.w3.org/2000/svg">
<path d="M7.12746 0.236181C7.12746 0.443575 7.35214 0.495423 8.25084 0.495423H9.37422V1.27315V2.05087H10.4976H11.621V1.27315V0.512706L12.7098 0.460858C13.3147 0.426292 13.764 0.339878 13.7468 0.236181C13.7122 0.132485 12.416 0.0460709 10.4112 0.0115054C7.55953 -0.0230602 7.12746 0.0115054 7.12746 0.236181Z" fill="#9F8F5B"/>
<path d="M16.8231 2.81132C16.6676 3.00143 16.6676 3.15697 16.7885 3.39893C17.0996 4.00383 20.487 7.08016 20.7636 7.02831C21.4722 6.89005 21.1265 6.30244 19.2772 4.45318C18.2403 3.41621 17.307 2.56936 17.2033 2.56936C17.0996 2.56936 16.9268 2.67305 16.8231 2.81132Z" fill="#9F8F5B"/>
<path d="M9.11498 3.08784C5.33005 3.62361 2.18459 6.12961 0.801964 9.74171C0.127936 11.5046 0.0242396 14.2871 0.560006 16.0845C1.44143 19.0053 3.2734 21.252 5.7794 22.4446C7.33485 23.1877 9.11498 23.6543 10.4976 23.6543C12.3814 23.6543 14.6973 22.9112 16.3565 21.7705C16.7885 21.4767 17.2897 21.2348 17.4798 21.2348C17.8082 21.2348 17.8428 21.3385 17.8428 22.5137C17.8428 23.9136 17.9119 24 18.9662 24C20.0204 24 20.0895 23.9136 20.0895 22.5137V21.2348H20.6944H21.2993V19.8521C21.2993 18.6942 21.2475 18.4177 20.9537 18.1239C20.7636 17.9337 20.4525 17.7782 20.2624 17.7782C19.8303 17.7782 19.8303 17.7782 20.2969 16.3956C20.7981 14.9093 20.8327 11.7292 20.3661 10.433C19.2773 7.37397 17.5663 5.35188 15.0603 4.15937C12.9518 3.15697 11.0679 2.8286 9.11498 3.08784ZM13.3493 4.09024C17.5317 5.542 20.0895 9.08496 20.0895 13.3884C20.0895 14.1488 20.0377 14.8228 19.9858 14.8747C19.934 14.9438 19.692 14.8747 19.4501 14.7537C18.897 14.4599 18.3613 14.65 18.0156 15.2549C17.7909 15.6524 17.7909 15.7561 18.0156 16.1709C18.223 16.5511 18.4304 16.6721 18.9316 16.7067L19.5711 16.7585L19.3118 17.277C19.0699 17.7264 18.9489 17.7782 18.223 17.7782C16.9441 17.7782 16.7367 18.0202 16.633 19.5929L16.5466 20.9237L15.4923 21.5631C14.0233 22.4446 12.8308 22.8075 11.0161 22.9112C8.02616 23.084 5.58929 22.1162 3.51536 19.9385C2.15002 18.5041 1.3723 17.0523 0.992075 15.2722C0.663702 13.734 0.663702 12.9217 0.992075 11.349C1.75252 7.70234 4.72515 4.69514 8.3891 3.84828C9.77172 3.53719 12.0876 3.65817 13.3493 4.09024Z" fill="#9F8F5B"/>
<path d="M10.1347 5.57656C10.0828 5.69754 10.0655 6.26787 10.1001 6.82092C10.1347 7.58137 10.2211 7.84061 10.4112 7.84061C10.6186 7.84061 10.6877 7.56408 10.7223 6.57896C10.7568 5.542 10.7223 5.3346 10.4976 5.3346C10.3421 5.3346 10.1865 5.4383 10.1347 5.57656Z" fill="#9F8F5B"/>
<path d="M5.57201 8.65291C5.57201 8.94672 8.64834 13.4575 9.32237 14.1834C9.87542 14.7537 10.463 14.9093 11.0679 14.6327C11.742 14.3044 12.0358 13.5958 11.7938 12.8699C11.6383 12.4033 11.1198 11.9539 8.92487 10.433C6.17691 8.53193 5.57201 8.20356 5.57201 8.65291Z" fill="#9F8F5B"/>
<path d="M2.58209 13.0427C2.51296 13.1119 2.46111 13.2847 2.46111 13.4057C2.46111 13.5958 2.73764 13.6303 3.72275 13.5958C4.69059 13.5612 4.96711 13.4921 4.96711 13.2847C4.96711 13.0773 4.70787 13.0082 3.84373 12.9736C3.22155 12.939 2.65122 12.9736 2.58209 13.0427Z" fill="#9F8F5B"/>
<path d="M16.0627 13.0427C15.9935 13.1119 15.9417 13.2847 15.9417 13.4057C15.9417 13.5958 16.2182 13.6303 17.2033 13.5958C18.1712 13.5612 18.4477 13.4921 18.4477 13.2847C18.4477 13.0773 18.1884 13.0082 17.3243 12.9736C16.7021 12.939 16.1318 12.9736 16.0627 13.0427Z" fill="#9F8F5B"/>
<path d="M10.1865 18.9361C9.96184 19.1435 10.0655 21.0101 10.2902 21.2175C10.6704 21.5113 10.7568 21.2693 10.7568 19.9904C10.7568 19.1262 10.6877 18.8152 10.5322 18.8152C10.3939 18.8152 10.2384 18.867 10.1865 18.9361Z" fill="#9F8F5B"/>
</svg>
