<svg width="36" height="24" viewBox="0 0 36 24" fill="none" xmlns="http://www.w3.org/2000/svg">
<g id="Group">
<path id="Vector" d="M12.7272 0.985954L12.7267 0.986143C8.46308 2.39497 4.75411 5.10173 1.52567 9.10943C1.08123 9.66498 0.711445 10.2198 0.453042 10.709C0.193538 11.2002 0.05 11.6184 0.05 11.9028C0.05 12.1609 0.150599 12.4894 0.340561 12.8738C0.530023 13.2572 0.806098 13.6916 1.15174 14.16C1.84298 15.0967 2.80958 16.1655 3.90936 17.2281C6.10971 19.3542 8.83669 21.4497 10.9477 22.4126L10.9477 22.4126C14.3577 23.9694 17.7657 24.3394 21.1316 23.543C24.4982 22.7465 27.8263 20.7823 31.0738 17.6647L31.0738 17.6647C31.9279 16.8477 32.7913 15.9658 33.492 15.2001C34.1941 14.4329 34.7292 13.7864 34.9305 13.4387L34.9304 13.4387L34.9315 13.437C35.2855 12.8781 35.4646 12.5435 35.5048 12.2218C35.5448 11.9021 35.4482 11.5883 35.2251 11.0677L35.2247 11.0667C35.0702 10.6849 34.6202 10.0611 33.9918 9.31595C33.3652 8.57281 32.566 7.71437 31.7188 6.86487C30.023 5.16441 28.1408 3.5055 27.0691 2.8773L27.0687 2.87704C26.1439 2.32218 24.1408 1.46871 22.6553 0.948755C19.0982 -0.273958 16.285 -0.237047 12.7272 0.985954ZM21.0209 18.2289L21.0209 18.2289C18.5529 19.4256 15.4098 19.1657 13.4973 17.6283C12.545 16.8627 11.8522 16.0395 11.3977 15.1071C10.9432 14.1746 10.7283 13.1355 10.7283 11.94C10.7283 10.8393 10.8682 9.95869 11.2062 9.1654C11.5442 8.37207 12.0787 7.66978 12.8623 6.92344L12.8624 6.9234C15.1057 4.79225 17.9891 4.22887 20.6483 5.46469C26.0365 7.8971 26.2644 15.6821 21.0209 18.2289Z" fill="#9F8F5B" stroke="#9F8F5B" stroke-width="0.1"/>
</g>
</svg>
