<svg width="24" height="24" viewBox="0 0 24 24" fill="none" xmlns="http://www.w3.org/2000/svg">
<g id="Group">
<path id="Vector" d="M1.07013 0.353662L1.06896 0.354395C1.03356 0.376446 0.999715 0.397163 0.967315 0.416996C0.749394 0.550396 0.596912 0.643734 0.477828 0.833115C0.340003 1.0523 0.24493 1.40601 0.182597 2.10809C0.0659865 3.42148 0.0662342 5.9104 0.0667312 10.9026C0.0667647 11.2394 0.0667994 11.5875 0.0667994 11.9474C0.0667994 17.0021 0.0711888 19.6021 0.117129 21.0088C0.140116 21.7126 0.173434 22.1139 0.220911 22.3733C0.267587 22.6283 0.327575 22.7446 0.407537 22.8794C0.569385 23.1418 0.69762 23.3294 0.909622 23.4716C1.12233 23.6143 1.42624 23.7154 1.94692 23.785C2.99019 23.9244 4.86737 23.9333 8.53152 23.9333C11.6858 23.9333 13.3479 23.9289 14.2896 23.883C14.7606 23.8601 15.0475 23.8269 15.2491 23.7799C15.4481 23.7335 15.5651 23.6734 15.6967 23.5928L15.6968 23.5927C16.0029 23.4056 16.3981 23.0106 16.5854 22.7043C16.6652 22.5698 16.7253 22.4502 16.7721 22.1948C16.8195 21.9354 16.8529 21.5373 16.8758 20.8467C16.9218 19.4664 16.9262 16.9321 16.9262 12.035C16.9262 11.8634 16.9262 11.6944 16.9262 11.5281C16.9263 6.28514 16.9264 3.65863 16.7973 2.26381C16.7306 1.54351 16.6301 1.16308 16.4849 0.922091C16.3471 0.693428 16.1664 0.584572 15.9054 0.427439C15.8946 0.420885 15.8835 0.414248 15.8724 0.407513C15.736 0.326551 15.6188 0.266537 15.4174 0.220167C15.213 0.173115 14.9206 0.13991 14.4342 0.116957C13.4618 0.0710659 11.7295 0.0666676 8.40889 0.0666676C5.36898 0.075428 3.62745 0.0841923 2.59537 0.123552C2.07909 0.14324 1.74315 0.170507 1.51209 0.208658C1.28182 0.246679 1.16033 0.294821 1.07013 0.353662ZM16.0329 2.14404L16.0342 2.14452C16.0869 2.16333 16.1254 2.20493 16.1546 2.26685C16.183 2.32721 16.2057 2.41304 16.2249 2.53258C16.2634 2.77244 16.2909 3.16779 16.3106 3.81476C16.35 5.11018 16.3588 7.42818 16.3588 11.562C16.3588 15.6959 16.35 18.0139 16.3106 19.3093C16.2909 19.9563 16.2634 20.3516 16.2249 20.5915C16.2057 20.711 16.183 20.7969 16.1546 20.8572C16.1254 20.9192 16.0869 20.9608 16.0342 20.9796L16.0342 20.9796L16.0329 20.98C16.0143 20.9862 15.9833 20.9899 15.9505 20.993C15.9144 20.9964 15.8663 20.9997 15.8072 21.003C15.689 21.0095 15.5247 21.0159 15.3199 21.022C14.9102 21.0344 14.3366 21.0459 13.6412 21.0557C12.2503 21.0754 10.3712 21.0886 8.33882 21.0886C5.57974 21.0886 3.71758 21.0754 2.5253 21.0426C1.92936 21.0261 1.49947 21.0047 1.20814 20.9774C1.06267 20.9638 0.950002 20.9485 0.867795 20.9312C0.826738 20.9226 0.791684 20.9131 0.763232 20.9024C0.736209 20.8923 0.708747 20.8788 0.688759 20.8588C0.672517 20.8426 0.663985 20.8208 0.659111 20.8066C0.653291 20.7897 0.648184 20.7693 0.64354 20.7466C0.63421 20.7011 0.625512 20.64 0.617285 20.5654C0.600792 20.416 0.58559 20.2068 0.57161 19.9471C0.543632 19.4274 0.520348 18.7016 0.50173 17.8388C0.464489 16.1132 0.445875 13.8375 0.445875 11.562C0.445875 9.28658 0.464489 7.01089 0.50173 5.28524C0.520348 4.42252 0.543632 3.69672 0.57161 3.177C0.58559 2.9173 0.600792 2.70809 0.617285 2.55866C0.625512 2.48412 0.63421 2.42304 0.64354 2.37746C0.648184 2.35478 0.653291 2.33439 0.659111 2.31746C0.663985 2.30328 0.672517 2.28151 0.688759 2.26527C0.708747 2.24528 0.736209 2.23178 0.763232 2.22164C0.791684 2.21097 0.826738 2.20151 0.867795 2.19287C0.950002 2.17558 1.06267 2.16031 1.20814 2.14667C1.49947 2.11936 1.92936 2.09797 2.5253 2.08153C3.71758 2.04866 5.57974 2.03552 8.33882 2.03552C10.3712 2.03552 12.2503 2.04866 13.6412 2.06838C14.3366 2.07823 14.9102 2.08974 15.3199 2.10207C15.5247 2.10823 15.689 2.11462 15.8072 2.12113C15.8663 2.12438 15.9144 2.12769 15.9505 2.13108C15.9833 2.13416 16.0143 2.13787 16.0329 2.14404Z" fill="#9F8F5B" stroke="#9F8F5B" stroke-width="0.133333"/>
<path id="Vector_2" d="M5.58614 14.9717L4.6102 14.6677L4.65643 15.3767L4.65644 15.3768L4.70579 16.15L5.62018 16.3495L5.62018 16.3495L5.62112 16.3497C6.1452 16.472 6.87902 16.6117 7.24459 16.6639L7.24459 16.6639L7.24584 16.6641L7.89401 16.7692L7.95001 16.7783V16.835V17.6934C7.95001 17.9087 7.95114 18.068 7.96048 18.1872C7.96995 18.3082 7.98734 18.3772 8.01257 18.4186C8.03425 18.4543 8.06528 18.4754 8.1259 18.4879C8.19094 18.5013 8.27979 18.5027 8.40889 18.5027C8.54267 18.5027 8.63302 18.5012 8.69826 18.4867C8.75784 18.4735 8.78832 18.4513 8.80998 18.4108C8.83539 18.3634 8.85151 18.2855 8.85968 18.1514C8.86774 18.0193 8.86777 17.8432 8.86777 17.6058C8.86777 17.3785 8.86884 17.2023 8.8772 17.0669C8.88547 16.9329 8.90116 16.8305 8.93491 16.7552C8.97127 16.6741 9.02785 16.626 9.10654 16.6012C9.1786 16.5785 9.26871 16.5757 9.37239 16.5757C9.51873 16.5757 9.72157 16.5294 9.9528 16.4483C10.1826 16.3677 10.4352 16.2548 10.6792 16.1257C10.9232 15.9967 11.1573 15.8523 11.3503 15.7093C11.5448 15.5653 11.6925 15.4264 11.7692 15.3094L11.7693 15.3093C12.3198 14.4749 12.4056 13.6581 12.0795 12.9339C11.7518 12.2062 11.0023 11.5586 9.85478 11.0805L9.8543 11.0803L8.90831 10.6774L8.86777 10.6601V10.6161V9.07445C8.86777 8.69806 8.86885 8.41216 8.87657 8.19561C8.88424 7.98032 8.89855 7.82801 8.92695 7.7215C8.95593 7.61282 9.00282 7.54025 9.08294 7.50176C9.15502 7.46713 9.24479 7.46617 9.33735 7.46617C9.4588 7.46617 9.6663 7.49824 9.89835 7.5464C10.1322 7.59494 10.3968 7.66109 10.6351 7.73169C10.7816 7.77508 10.9215 7.81685 11.0452 7.85378C11.1212 7.87648 11.1911 7.89735 11.2527 7.91565C11.3337 7.93974 11.4002 7.95937 11.4476 7.97296C11.4699 7.97939 11.4877 7.98438 11.5005 7.98783C11.5053 7.98252 11.5114 7.97481 11.5187 7.96411C11.5403 7.93255 11.566 7.88478 11.5942 7.82379C11.6501 7.70251 11.7116 7.53826 11.7659 7.37004C11.8201 7.20185 11.8664 7.03204 11.8926 6.89991C11.9057 6.8335 11.9133 6.77892 11.9148 6.73972C11.9155 6.72149 11.9148 6.70891 11.9136 6.70109C11.8994 6.69095 11.8729 6.67626 11.831 6.65787C11.7825 6.63662 11.7192 6.6129 11.6433 6.58736C11.4916 6.53633 11.2929 6.47931 11.0682 6.42149C10.6189 6.30589 10.069 6.18807 9.58936 6.10958C9.42853 6.0835 9.30159 6.06209 9.20415 6.03393C9.10619 6.00561 9.02846 5.96794 8.97336 5.90296C8.91833 5.83804 8.89352 5.75487 8.88112 5.65274C8.86877 5.55104 8.86777 5.42079 8.86777 5.25547C8.86777 5.08861 8.86551 4.96524 8.85505 4.87262C8.84448 4.77905 8.82641 4.72715 8.80257 4.69587C8.78103 4.6676 8.74842 4.64803 8.68553 4.63612C8.62043 4.62378 8.53253 4.6214 8.40889 4.6214C8.28055 4.6214 8.19116 4.62383 8.1259 4.63728C8.06396 4.65004 8.03249 4.67093 8.01125 4.70312C7.98695 4.73997 7.96983 4.80076 7.96043 4.90792C7.95115 5.01367 7.95001 5.15402 7.95001 5.34306C7.95001 5.52674 7.94786 5.67092 7.9374 5.78284C7.92706 5.89352 7.90799 5.98165 7.86814 6.04761C7.8255 6.11817 7.76352 6.15652 7.68538 6.1763C7.6115 6.195 7.51948 6.19803 7.41106 6.19805C7.01709 6.20667 6.47789 6.41835 5.98742 6.72651C5.49657 7.03492 5.07097 7.42965 4.89507 7.78982C4.54554 8.50593 4.57541 9.24088 4.93539 9.90547C5.29649 10.5721 5.99248 11.1722 6.98165 11.6061L6.98165 11.6061L6.98237 11.6064L7.91084 12.0269L7.95001 12.0446V12.0876V13.6642V15.2409V15.3075H7.88334H7.28772C7.11413 15.3075 6.83697 15.2669 6.53222 15.2055C6.22596 15.1438 5.88685 15.0601 5.58716 14.972L5.58715 14.972L5.58614 14.9717ZM7.13241 9.92087L7.13239 9.9209L7.13062 9.91983C6.69023 9.65376 6.45154 9.1996 6.42627 8.76076C6.40098 8.32168 6.58993 7.89009 7.01318 7.68316L7.01375 7.68289C7.20541 7.59142 7.36183 7.52395 7.48656 7.5002C7.54984 7.48814 7.60994 7.48626 7.66495 7.50141C7.72158 7.51701 7.76815 7.54938 7.80491 7.59745C7.87452 7.68848 7.9081 7.83532 7.92672 8.03241C7.94567 8.23305 7.95001 8.50099 7.95001 8.84671C7.95001 9.20724 7.93682 9.53758 7.91693 9.77847C7.90701 9.89862 7.8953 9.99806 7.88239 10.0683C7.87603 10.103 7.86887 10.1334 7.86045 10.1565C7.85639 10.1676 7.85065 10.1809 7.84215 10.1927C7.83545 10.202 7.81481 10.2272 7.77823 10.2272C7.76069 10.2272 7.74216 10.2222 7.7284 10.2179C7.71262 10.2129 7.69432 10.2061 7.67438 10.1979C7.63438 10.1815 7.58417 10.1583 7.52772 10.1307C7.41462 10.0752 7.27332 10.0001 7.13241 9.92087ZM9.30177 12.4961L9.30234 12.4963C9.40886 12.5253 9.55162 12.6 9.69543 12.6929C9.84065 12.7867 9.99266 12.9029 10.1184 13.0197C10.4726 13.3467 10.6246 13.7397 10.5705 14.1118C10.5163 14.4837 10.2584 14.8197 9.82315 15.0375C9.62335 15.1417 9.46207 15.2201 9.33491 15.2519C9.27049 15.268 9.20904 15.2737 9.15261 15.2612C9.09402 15.2481 9.04594 15.2165 9.00848 15.1675C8.97234 15.1202 8.94728 15.0585 8.9289 14.9855C8.91042 14.912 8.89772 14.8229 8.88881 14.7177C8.87101 14.5075 8.86777 14.2244 8.86777 13.8569C8.86777 13.5331 8.86885 13.2833 8.87575 13.0927C8.88259 12.9035 8.89527 12.7671 8.92037 12.6726C8.94557 12.5778 8.98838 12.5074 9.06855 12.4806C9.10522 12.4684 9.14377 12.4677 9.18127 12.4717C9.21875 12.4757 9.25936 12.4849 9.30177 12.4961Z" fill="#9F8F5B" stroke="#9F8F5B" stroke-width="0.133333"/>
<path id="Vector_3" d="M20.0546 10.1733L20.0546 10.1734L20.052 10.1738C19.9617 10.1888 19.8228 10.2563 19.6688 10.3604C19.5172 10.4629 19.359 10.5955 19.2312 10.7317L19.2309 10.7321C18.5723 11.4245 18.5723 12.4172 19.2478 13.1097L19.2478 13.1097L19.2483 13.1101C19.4474 13.3179 19.597 13.4366 19.774 13.5058C19.9523 13.5755 20.165 13.5976 20.4965 13.5976C20.8279 13.5976 21.0407 13.5755 21.2189 13.5058C21.3959 13.4366 21.5455 13.3179 21.7447 13.1101L21.7447 13.1101C22.9396 11.8647 21.7649 9.81771 20.0546 10.1733Z" fill="#9F8F5B" stroke="#9F8F5B" stroke-width="0.133333"/>
<path id="Vector_4" d="M18.3316 15.0821L18.3316 15.0821L18.3301 15.0833C18.0237 15.3216 17.8404 15.5601 17.7312 15.9277C17.6204 16.3006 17.585 16.8086 17.585 17.5883V19.0282H18.0439H18.5695H18.6361V19.0949V20.4613C18.6361 20.8709 18.6579 21.2313 18.6947 21.5035C18.713 21.6397 18.735 21.7523 18.7592 21.8374C18.7845 21.9261 18.8094 21.9734 18.8268 21.9908C18.8354 21.9994 18.8539 22.0118 18.8872 22.0258C18.9194 22.0393 18.9613 22.0526 19.0123 22.0652C19.1142 22.0905 19.2473 22.112 19.4024 22.1294C19.7124 22.164 20.1039 22.1815 20.4965 22.1815C20.889 22.1815 21.2806 22.164 21.5905 22.1294C21.7457 22.112 21.8788 22.0905 21.9807 22.0652C22.0317 22.0526 22.0735 22.0393 22.1058 22.0258C22.1391 22.0118 22.1575 21.9994 22.1661 21.9908C22.1836 21.9734 22.2084 21.9261 22.2337 21.8374C22.258 21.7523 22.2799 21.6397 22.2983 21.5035C22.335 21.2313 22.3568 20.8709 22.3568 20.4613V19.0949V19.0282H22.4235H22.949H23.4079V17.5883C23.4079 16.9582 23.3848 16.4687 23.3109 16.0879C23.2371 15.7078 23.1138 15.4423 22.9181 15.2538C22.7222 15.0651 22.446 14.9461 22.0512 14.8751C21.6559 14.804 21.1486 14.782 20.4965 14.782C19.7517 14.782 19.2789 14.7996 18.9558 14.847C18.6351 14.894 18.4683 14.9695 18.3316 15.0821Z" fill="#9F8F5B" stroke="#9F8F5B" stroke-width="0.133333"/>
</g>
</svg>
