<svg width="48" height="48" viewBox="0 0 48 48" fill="none" xmlns="http://www.w3.org/2000/svg">
<g filter="url(#filter0_d_177_1177)">
<rect x="4" width="40" height="40" rx="20" fill="#393122"/>
<path d="M27 10H21C19.897 10 19 10.897 19 12V14H15V16H17V28C17 29.103 17.897 30 19 30H29C30.103 30 31 29.103 31 28V16H33V14H29V12C29 10.897 28.103 10 27 10ZM21 12H27V14H21V12ZM29 28H19V16H29V28Z" fill="white"/>
</g>
<defs>
<filter id="filter0_d_177_1177" x="0" y="0" width="48" height="48" filterUnits="userSpaceOnUse" color-interpolation-filters="sRGB">
<feFlood flood-opacity="0" result="BackgroundImageFix"/>
<feColorMatrix in="SourceAlpha" type="matrix" values="0 0 0 0 0 0 0 0 0 0 0 0 0 0 0 0 0 0 127 0" result="hardAlpha"/>
<feOffset dy="4"/>
<feGaussianBlur stdDeviation="2"/>
<feComposite in2="hardAlpha" operator="out"/>
<feColorMatrix type="matrix" values="0 0 0 0 0 0 0 0 0 0 0 0 0 0 0 0 0 0 0.25 0"/>
<feBlend mode="normal" in2="BackgroundImageFix" result="effect1_dropShadow_177_1177"/>
<feBlend mode="normal" in="SourceGraphic" in2="effect1_dropShadow_177_1177" result="shape"/>
</filter>
</defs>
</svg>
