<svg width="40" height="40" viewBox="0 0 40 40" fill="none" xmlns="http://www.w3.org/2000/svg">
<rect width="40" height="40" rx="20" fill="#9F8F5B"/>
<path d="M27.045 15.401C27.423 15.023 27.631 14.521 27.631 13.987C27.631 13.453 27.423 12.951 27.045 12.573L25.459 10.987C25.081 10.609 24.579 10.401 24.045 10.401C23.511 10.401 23.009 10.609 22.632 10.986L12 21.585V26H16.413L27.045 15.401ZM24.045 12.401L25.632 13.986L24.042 15.57L22.456 13.985L24.045 12.401ZM14 24V22.415L21.04 15.397L22.626 16.983L15.587 24H14ZM12 28H28V30H12V28Z" fill="white"/>
</svg>
