<svg width="56" height="56" viewBox="0 0 56 56" fill="none" xmlns="http://www.w3.org/2000/svg">
<g filter="url(#filter0_d_11_4226)">
<rect x="4" width="48" height="48" rx="24" fill="#9F8F5B"/>
<path d="M19.8333 28C21.0001 27.9934 22.1224 27.5511 22.98 26.76L31.3267 31.5333C31.2203 31.9017 31.1665 32.2832 31.1667 32.6667C31.1581 33.7487 31.5226 34.8007 32.1989 35.6454C32.8752 36.4902 33.8219 37.0761 34.8796 37.3045C35.9373 37.533 37.0414 37.39 38.006 36.8996C38.9706 36.4093 39.7368 35.6015 40.1756 34.6124C40.6143 33.6232 40.6989 32.5131 40.4149 31.4689C40.131 30.4248 39.496 29.5103 38.6167 28.8796C37.7375 28.2488 36.6677 27.9403 35.5876 28.0059C34.5075 28.0716 33.483 28.5074 32.6867 29.24L24.34 24.4667C24.4407 24.1381 24.4946 23.797 24.5 23.4533L32.7 18.76C33.4921 19.4758 34.5062 19.8974 35.5723 19.9543C36.6383 20.0111 37.6915 19.6996 38.5552 19.0721C39.4189 18.4445 40.0405 17.5391 40.3158 16.5076C40.5912 15.4762 40.5035 14.3814 40.0674 13.4069C39.6314 12.4324 38.8735 11.6375 37.9209 11.1555C36.9684 10.6735 35.879 10.5337 34.8356 10.7595C33.7921 10.9853 32.8581 11.5631 32.1901 12.3959C31.5221 13.2286 31.1607 14.2658 31.1667 15.3333C31.1712 15.7164 31.2249 16.0973 31.3267 16.4667L23.74 20.8C23.3004 20.1199 22.6914 19.566 21.9729 19.1925C21.2544 18.8191 20.4511 18.6391 19.6419 18.6701C18.8327 18.7012 18.0456 18.9422 17.3578 19.3696C16.67 19.797 16.1052 20.396 15.7191 21.1078C15.3329 21.8195 15.1385 22.6195 15.1551 23.4291C15.1718 24.2387 15.3987 25.03 15.8138 25.7253C16.2289 26.4206 16.8177 26.996 17.5224 27.3948C18.2272 27.7936 19.0236 28.0022 19.8333 28ZM35.8333 30.6667C36.2289 30.6667 36.6156 30.784 36.9445 31.0037C37.2734 31.2235 37.5297 31.5358 37.6811 31.9013C37.8325 32.2668 37.8721 32.6689 37.7949 33.0568C37.7177 33.4448 37.5273 33.8012 37.2475 34.0809C36.9678 34.3606 36.6115 34.5511 36.2235 34.6282C35.8355 34.7054 35.4334 34.6658 35.068 34.5144C34.7025 34.3631 34.3902 34.1067 34.1704 33.7778C33.9506 33.4489 33.8333 33.0622 33.8333 32.6667C33.8333 32.1362 34.044 31.6275 34.4191 31.2525C34.7942 30.8774 35.3029 30.6667 35.8333 30.6667ZM35.8333 13.3333C36.2289 13.3333 36.6156 13.4506 36.9445 13.6704C37.2734 13.8902 37.5297 14.2025 37.6811 14.568C37.8325 14.9334 37.8721 15.3356 37.7949 15.7235C37.7177 16.1115 37.5273 16.4678 37.2475 16.7475C36.9678 17.0273 36.6115 17.2177 36.2235 17.2949C35.8355 17.3721 35.4334 17.3325 35.068 17.1811C34.7025 17.0297 34.3902 16.7734 34.1704 16.4445C33.9506 16.1156 33.8333 15.7289 33.8333 15.3333C33.8333 14.8029 34.044 14.2942 34.4191 13.9191C34.7942 13.544 35.3029 13.3333 35.8333 13.3333ZM19.8333 21.3333C20.2289 21.3333 20.6156 21.4506 20.9445 21.6704C21.2734 21.8902 21.5297 22.2025 21.6811 22.568C21.8325 22.9334 21.8721 23.3356 21.7949 23.7235C21.7177 24.1115 21.5273 24.4678 21.2475 24.7475C20.9678 25.0273 20.6115 25.2177 20.2235 25.2949C19.8356 25.3721 19.4334 25.3325 19.068 25.1811C18.7025 25.0297 18.3902 24.7734 18.1704 24.4445C17.9506 24.1156 17.8333 23.7289 17.8333 23.3333C17.8333 22.8029 18.044 22.2942 18.4191 21.9191C18.7942 21.544 19.3029 21.3333 19.8333 21.3333Z" fill="white"/>
</g>
<defs>
<filter id="filter0_d_11_4226" x="0" y="0" width="56" height="56" filterUnits="userSpaceOnUse" color-interpolation-filters="sRGB">
<feFlood flood-opacity="0" result="BackgroundImageFix"/>
<feColorMatrix in="SourceAlpha" type="matrix" values="0 0 0 0 0 0 0 0 0 0 0 0 0 0 0 0 0 0 127 0" result="hardAlpha"/>
<feOffset dy="4"/>
<feGaussianBlur stdDeviation="2"/>
<feComposite in2="hardAlpha" operator="out"/>
<feColorMatrix type="matrix" values="0 0 0 0 0 0 0 0 0 0 0 0 0 0 0 0 0 0 0.25 0"/>
<feBlend mode="normal" in2="BackgroundImageFix" result="effect1_dropShadow_11_4226"/>
<feBlend mode="normal" in="SourceGraphic" in2="effect1_dropShadow_11_4226" result="shape"/>
</filter>
</defs>
</svg>
