<svg width="56" height="56" viewBox="0 0 56 56" fill="none" xmlns="http://www.w3.org/2000/svg">
<g filter="url(#filter0_d_11_4224)">
<rect x="4" width="48" height="48" rx="24" fill="#9F8F5B"/>
<path d="M38.6667 12H37.3333V29.3333H38.6667C39.3739 29.3333 40.0522 29.0524 40.5523 28.5523C41.0524 28.0522 41.3333 27.3739 41.3333 26.6667V14.6667C41.3333 13.9594 41.0524 13.2811 40.5523 12.781C40.0522 12.281 39.3739 12 38.6667 12ZM17.3333 29.3333H26.6667L25.1707 33.824C25.0372 34.2248 25.0008 34.6515 25.0646 35.0691C25.1283 35.4867 25.2904 35.8832 25.5374 36.2259C25.7844 36.5686 26.1092 36.8477 26.4852 37.0402C26.8612 37.2328 27.2776 37.3332 27.7 37.3333H28L34.6667 30.0827V12H20L14.7507 23.532L14.6667 23.9227V26.6667C14.6667 27.3739 14.9476 28.0522 15.4477 28.5523C15.9478 29.0524 16.6261 29.3333 17.3333 29.3333Z" fill="white"/>
</g>
<defs>
<filter id="filter0_d_11_4224" x="0" y="0" width="56" height="56" filterUnits="userSpaceOnUse" color-interpolation-filters="sRGB">
<feFlood flood-opacity="0" result="BackgroundImageFix"/>
<feColorMatrix in="SourceAlpha" type="matrix" values="0 0 0 0 0 0 0 0 0 0 0 0 0 0 0 0 0 0 127 0" result="hardAlpha"/>
<feOffset dy="4"/>
<feGaussianBlur stdDeviation="2"/>
<feComposite in2="hardAlpha" operator="out"/>
<feColorMatrix type="matrix" values="0 0 0 0 0 0 0 0 0 0 0 0 0 0 0 0 0 0 0.25 0"/>
<feBlend mode="normal" in2="BackgroundImageFix" result="effect1_dropShadow_11_4224"/>
<feBlend mode="normal" in="SourceGraphic" in2="effect1_dropShadow_11_4224" result="shape"/>
</filter>
</defs>
</svg>
