<svg width="56" height="56" viewBox="0 0 56 56" fill="none" xmlns="http://www.w3.org/2000/svg">
<g filter="url(#filter0_d_11_4234)">
<rect x="4" width="48" height="48" rx="24" fill="#9F8F5B"/>
<path d="M28.0039 29C29.5791 29 30.9167 28.4487 32.0167 27.3461C33.1167 26.2435 33.6667 24.9046 33.6667 23.3294C33.6667 21.7542 33.1154 20.4167 32.0127 19.3167C30.9101 18.2167 29.5712 17.6667 27.9961 17.6667C26.4209 17.6667 25.0833 18.218 23.9833 19.3206C22.8833 20.4232 22.3333 21.7621 22.3333 23.3373C22.3333 24.9124 22.8846 26.25 23.9873 27.35C25.0899 28.45 26.4288 29 28.0039 29ZM27.9922 27.0667C26.9529 27.0667 26.0722 26.7029 25.35 25.9755C24.6278 25.248 24.2667 24.3647 24.2667 23.3255C24.2667 22.2863 24.6304 21.4056 25.3578 20.6833C26.0853 19.9611 26.9686 19.6 28.0078 19.6C29.047 19.6 29.9278 19.9637 30.65 20.6912C31.3722 21.4186 31.7333 22.302 31.7333 23.3412C31.7333 24.3804 31.3696 25.2611 30.6422 25.9833C29.9147 26.7056 29.0314 27.0667 27.9922 27.0667ZM28 33.3333C24.7555 33.3333 21.8222 32.4111 19.2 30.5667C16.5778 28.7222 14.6222 26.3111 13.3333 23.3333C14.6222 20.3556 16.5778 17.9444 19.2 16.1C21.8222 14.2556 24.7555 13.3333 28 13.3333C31.2444 13.3333 34.1778 14.2556 36.8 16.1C39.4222 17.9444 41.3778 20.3556 42.6667 23.3333C41.3778 26.3111 39.4222 28.7222 36.8 30.5667C34.1778 32.4111 31.2444 33.3333 28 33.3333ZM27.9944 31.3333C30.687 31.3333 33.1611 30.6056 35.4167 29.15C37.6722 27.6944 39.3889 25.7556 40.5667 23.3333C39.3889 20.9111 37.6741 18.9722 35.4223 17.5167C33.1705 16.0611 30.6982 15.3333 28.0056 15.3333C25.313 15.3333 22.8389 16.0611 20.5833 17.5167C18.3278 18.9722 16.6 20.9111 15.4 23.3333C16.6 25.7556 18.3259 27.6944 20.5777 29.15C22.8295 30.6056 25.3017 31.3333 27.9944 31.3333Z" fill="white"/>
</g>
<defs>
<filter id="filter0_d_11_4234" x="0" y="0" width="56" height="56" filterUnits="userSpaceOnUse" color-interpolation-filters="sRGB">
<feFlood flood-opacity="0" result="BackgroundImageFix"/>
<feColorMatrix in="SourceAlpha" type="matrix" values="0 0 0 0 0 0 0 0 0 0 0 0 0 0 0 0 0 0 127 0" result="hardAlpha"/>
<feOffset dy="4"/>
<feGaussianBlur stdDeviation="2"/>
<feComposite in2="hardAlpha" operator="out"/>
<feColorMatrix type="matrix" values="0 0 0 0 0 0 0 0 0 0 0 0 0 0 0 0 0 0 0.25 0"/>
<feBlend mode="normal" in2="BackgroundImageFix" result="effect1_dropShadow_11_4234"/>
<feBlend mode="normal" in="SourceGraphic" in2="effect1_dropShadow_11_4234" result="shape"/>
</filter>
</defs>
</svg>
