<svg width="48" height="48" viewBox="0 0 48 48" fill="none" xmlns="http://www.w3.org/2000/svg">
<path d="M16 24C20.56 24 24 20.56 24 16C24 11.44 20.56 7.99997 16 7.99997C11.44 7.99997 8 11.44 8 16C8 20.56 11.44 24 16 24ZM16 12C18.356 12 20 13.644 20 16C20 18.356 18.356 20 16 20C13.644 20 12 18.356 12 16C12 13.644 13.644 12 16 12ZM18 26H14C8.486 26 4 30.486 4 36V38H8V36C8 32.692 10.692 30 14 30H18C21.308 30 24 32.692 24 36V38H28V36C28 30.486 23.514 26 18 26ZM36.728 5.27197L33.9 8.09997C36.542 10.746 38 14.262 38 18C38 21.738 36.542 25.254 33.9 27.9L36.728 30.728C40.128 27.326 42 22.806 42 18C42 13.194 40.128 8.67397 36.728 5.27197Z" fill="#9F8F5B"/>
<path d="M31.0699 10.928L28.2419 13.76C29.3759 14.89 29.9999 16.396 29.9999 18C29.9999 19.604 29.3759 21.11 28.2419 22.24L31.0699 25.072C32.9579 23.184 33.9999 20.674 33.9999 18C33.9999 15.326 32.9579 12.816 31.0699 10.928Z" fill="#9F8F5B"/>
</svg>
