<svg width="14" height="15" viewBox="0 0 14 15" fill="none" xmlns="http://www.w3.org/2000/svg">
<g clip-path="url(#clip0_1055_1271)">
<path d="M13.7105 3.53546L13.2474 3.07228C12.9937 2.81864 12.5747 2.81864 12.321 3.07228L5.8035 9.58981L1.70109 5.48741C1.44745 5.23376 1.02839 5.23376 0.774745 5.48741L0.31157 5.95058C0.0579271 6.20422 0.0579271 6.62329 0.31157 6.87693L4.86612 11.4315C4.87715 11.4425 4.87715 11.4425 4.88818 11.4535L5.35135 11.9167C5.48369 12.049 5.6491 12.1042 5.81452 12.1042C5.97994 12.1042 6.15639 12.038 6.2777 11.9167L6.74087 11.4535C6.7519 11.4425 6.7519 11.4425 6.76293 11.4315L13.7326 4.46181C13.9642 4.20816 13.9642 3.7891 13.7105 3.53546Z" fill="#699F5B"/>
<path d="M1.0725 6.88795L0.818855 6.63431C0.708575 6.52403 0.708575 6.33655 0.818855 6.22627L1.02839 6.01674C1.13867 5.90646 1.32614 5.90646 1.43642 6.01674L5.80349 10.3838L11.7035 4.48386L12.321 3.86629L12.5747 3.61265C12.6849 3.50237 12.8724 3.50237 12.9827 3.61265L13.1922 3.82218C13.3025 3.93246 13.3025 4.11993 13.1922 4.23021L6.002 11.4204C5.96891 11.4535 5.94686 11.4646 5.90275 11.4866C5.80349 11.5307 5.67116 11.5087 5.59396 11.4204L1.70109 7.52757L1.0725 6.88795Z" fill="#699F5B"/>
<path d="M5.79244 12.2145C5.58291 12.2145 5.39543 12.1373 5.25207 11.9939L4.78889 11.5307C4.77786 11.5197 4.77786 11.5197 4.76684 11.5087L0.223316 6.96515C-0.0744388 6.6674 -0.0744388 6.18217 0.223316 5.88441L0.686491 5.42124C0.829854 5.27787 1.02836 5.20068 1.22686 5.20068C1.43639 5.20068 1.62387 5.27787 1.76723 5.42124L5.79244 9.44644L12.2328 3.00611C12.3761 2.86275 12.5746 2.78555 12.7731 2.78555C12.9827 2.78555 13.1701 2.86275 13.3135 3.00611L13.7767 3.46929C14.0744 3.76704 14.0744 4.25227 13.7767 4.55003L6.80701 11.5197C6.80701 11.5307 6.79598 11.5307 6.78495 11.5418L6.32178 12.0049C6.20047 12.1373 6.00197 12.2145 5.79244 12.2145ZM5.79244 11.9939C5.9358 11.9939 6.07916 11.9388 6.17842 11.8395L6.64159 11.3763C6.64159 11.3653 6.65262 11.3653 6.65262 11.3543L13.6223 4.38461C13.8318 4.17508 13.8318 3.82218 13.6223 3.61265L13.1591 3.14948C13.0599 3.05022 12.9165 2.99508 12.7731 2.99508C12.6298 2.99508 12.4864 3.05022 12.3872 3.14948L5.86963 9.667C5.82552 9.71111 5.75935 9.71111 5.71524 9.667L1.61284 5.5646C1.51359 5.46535 1.37022 5.41021 1.22686 5.41021C1.0835 5.41021 0.940134 5.46535 0.840882 5.5646L0.377708 6.02777C0.168176 6.23731 0.168176 6.5902 0.377708 6.79973L4.93226 11.3543C4.94328 11.3653 4.94328 11.3653 4.95431 11.3763L5.40646 11.8395C5.50571 11.9388 5.64907 11.9939 5.79244 11.9939Z" fill="white"/>
<path d="M5.79244 10.4831C5.75935 10.4831 5.7373 10.472 5.71524 10.45L1.34817 6.08291C1.282 6.01674 1.17172 6.01674 1.10555 6.08291L0.896019 6.29244C0.862935 6.32553 0.840879 6.36964 0.840879 6.41375C0.840879 6.45786 0.862935 6.50197 0.896019 6.53506L1.14966 6.7887C1.19377 6.83281 1.19377 6.89898 1.14966 6.94309C1.10555 6.9872 1.03938 6.9872 0.99527 6.94309L0.741627 6.68945C0.664432 6.61225 0.631348 6.513 0.631348 6.41375C0.631348 6.3145 0.67546 6.20422 0.741627 6.13805L0.951159 5.92852C1.10555 5.77413 1.35919 5.77413 1.51358 5.92852L5.80346 10.2184L11.6262 4.39563C11.6703 4.35152 11.7365 4.35152 11.7806 4.39563C11.8247 4.43974 11.8247 4.50591 11.7806 4.55002L5.88066 10.45C5.84758 10.472 5.82552 10.4831 5.79244 10.4831Z" fill="white"/>
<path d="M5.79241 11.5969C5.69316 11.5969 5.59391 11.5528 5.51671 11.4866L1.62384 7.59373C1.57973 7.54962 1.57973 7.48345 1.62384 7.43934C1.66796 7.39523 1.73412 7.39523 1.77823 7.43934L5.67111 11.3322C5.72625 11.3874 5.79241 11.3984 5.85858 11.3653C5.88064 11.3543 5.90269 11.3432 5.91372 11.3322L13.104 4.14198C13.137 4.1089 13.1591 4.06478 13.1591 4.02067C13.1591 3.97656 13.137 3.93245 13.104 3.89936L12.8944 3.68983C12.8283 3.62366 12.718 3.62366 12.6518 3.68983L12.3982 3.94348C12.3541 3.98759 12.2879 3.98759 12.2438 3.94348C12.1997 3.89936 12.1997 3.8332 12.2438 3.78908L12.4974 3.53544C12.6408 3.38105 12.9055 3.38105 13.0598 3.53544L13.2694 3.74497C13.3466 3.82217 13.3797 3.92142 13.3797 4.02067C13.3797 4.13095 13.3355 4.2302 13.2694 4.29637L6.07914 11.4866C6.04606 11.5197 6.00195 11.5528 5.94681 11.5748C5.89167 11.5859 5.84755 11.5969 5.79241 11.5969Z" fill="white"/>
</g>
<defs>
<clipPath id="clip0_1055_1271">
<rect width="14" height="14" fill="white" transform="translate(0 0.5)"/>
</clipPath>
</defs>
</svg>
