<svg width="32" height="32" viewBox="0 0 32 32" fill="none" xmlns="http://www.w3.org/2000/svg">
<path d="M15 2.66663C7.64799 2.66663 1.66666 8.64796 1.66666 16C1.66666 23.352 7.64799 29.3333 15 29.3333C22.352 29.3333 28.3333 23.352 28.3333 16C28.3333 8.64796 22.352 2.66663 15 2.66663ZM15 26.6666C9.11866 26.6666 4.33332 21.8813 4.33332 16C4.33332 10.1186 9.11866 5.33329 15 5.33329C20.8813 5.33329 25.6667 10.1186 25.6667 16C25.6667 21.8813 20.8813 26.6666 15 26.6666Z" fill="white"/>
<path d="M12.332 18.116L9.26667 15.056L7.384 16.944L12.3347 21.884L21.276 12.9427L19.3907 11.0574L12.332 18.116Z" fill="white"/>
</svg>
